<?xml version="1.0" standalone="no"?>
<!DOCTYPE svg PUBLIC "-//W3C//DTD SVG 1.1//EN" "http://www.w3.org/Graphics/SVG/1.1/DTD/svg11.dtd" >
<!--
2013-9-30: Created.
-->
<svg>
<metadata>
Created by iconfont
</metadata>
<defs>

<font id="iconfont" horiz-adv-x="1024" >
  <font-face
    font-family="iconfont"
    font-weight="500"
    font-stretch="normal"
    units-per-em="1024"
    ascent="896"
    descent="-128"
  />
    <missing-glyph />
    
    <glyph glyph-name="saoyisao" unicode="&#59018;" d="M75.574744 587.85194c0 0-22.10546 146.428977 187.867762 150.573367 209.975269 4.14439 232.073566-178.198541 232.073566-178.198541l176.823218 0c0 0 41.433668-8.28878 40.058344-58.021461-1.384533-49.730635-34.537608-48.346101-34.537608-48.346101l-413.036058-0.00614c0 0-49.729611 1.384533-51.111075-56.634882-1.379417-58.019415 9.68457-145.023978-59.398832-145.047514-46.969755-0.016373-48.349171 56.644091-48.349171 56.644091L75.574744 587.85194zM946.595584 14.606041c0 0 22.106484-146.431024-187.866738-150.575414-209.977315-4.14439-232.074589 178.200588-232.074589 178.200588L349.831039 42.231215c0 0-41.436738 8.28878-40.057321 58.019415 1.38044 49.730635 34.534538 48.355311 34.534538 48.355311l413.035034 0c0 0 49.726541-1.384533 51.111075 56.634882 1.384533 58.020438-9.679453 145.022954 59.402925 145.04649 46.962591 0.016373 48.346101-56.634882 48.346101-56.634882L946.595584 14.606041z"  horiz-adv-x="1024" />

    
    <glyph glyph-name="xiangce" unicode="&#58971;" d="M941.576533 721.640533 85.922133 721.640533c-44.066133 0-79.906133-35.848533-79.906133-79.914667l0-687.863467c0-44.066133 35.848533-79.914667 79.906133-79.914667l587.204267 0 58.7264 0 83.882667 0c5.1968 0 9.873067 3.140267 11.844267 7.944533 1.962667 4.804267 0.836267 10.325333-2.858667 13.969067L546.730667 169.704533l151.099733 143.5392 301.568-317.866667c2.466133-2.602667 5.845333-3.9936 9.2928-3.9936 1.595733 0 3.2 0.298667 4.736 0.913067 4.864 1.937067 8.055467 6.647467 8.055467 11.886933l0 50.338133 0 25.1648L1021.482667 641.725867C1021.482667 685.792 985.634133 721.640533 941.576533 721.640533zM731.861333-100.4608l-58.7264 0L85.922133-100.4608c-29.943467 0-54.306133 24.362667-54.306133 54.314667L31.616 224.949333 253.269333 422.8544l531.234133-523.3152L731.861333-100.4608zM995.882667 36.277333 707.584 340.157867c-2.338133 2.466133-5.5552 3.899733-8.951467 3.985067-3.498667 0.110933-6.690133-1.1776-9.147733-3.515733L528.4864 187.675733 262.6816 449.521067c-4.821333 4.736-12.475733 4.9152-17.5104 0.426667L31.616 259.278933 31.616 641.725867c0 29.952 24.362667 54.314667 54.306133 54.314667l855.645867 0c29.943467 0 54.306133-24.362667 54.306133-54.314667l0-562.039467 0-25.1648L995.874133 36.277333z"  horiz-adv-x="1024" />

    
    <glyph glyph-name="jiahao" unicode="&#59111;" d="M511.563048 831.766047c-247.579725 0-448.281793-200.705138-448.281793-448.284863s200.701045-448.281793 448.281793-448.281793S959.844841 135.901459 959.844841 383.481184 759.142773 831.766047 511.563048 831.766047zM511.563048-0.802016c-212.235752 0-384.2832 172.051541-384.2832 384.2832 0 212.235752 172.047448 384.2832 384.2832 384.2832 212.231659 0 384.2832-172.047448 384.2832-384.2832C895.846248 171.249525 723.79573-0.802016 511.563048-0.802016zM765.295913 420.614919 548.694737 420.614919 548.694737 637.216095 474.43136 637.216095 474.43136 420.614919 257.830183 420.614919 257.830183 346.351542 474.43136 346.351542 474.43136 129.749342 548.694737 129.749342 548.694737 346.351542 765.295913 346.351542Z"  horiz-adv-x="1024" />

    
    <glyph glyph-name="jiahao1" unicode="&#58903;" d="M512-128c-137.6 0-265.6 54.4-361.6 150.4-96 96-150.4 224-150.4 361.6 0 137.6 54.4 265.6 150.4 361.6 96 96 224 150.4 361.6 150.4s265.6-54.4 361.6-150.4c96-96 150.4-224 150.4-361.6 0-137.6-54.4-265.6-150.4-361.6C777.6-73.6 649.6-128 512-128L512-128zM512 819.2c-118.4 0-227.2-44.8-310.4-128-83.2-83.2-128-192-128-307.2s44.8-227.2 128-307.2c83.2-83.2 192-128 310.4-128 118.4 0 227.2 44.8 310.4 128 83.2 83.2 128 192 128 307.2 0 115.2-44.8 227.2-128 307.2C739.2 774.4 630.4 819.2 512 819.2L512 819.2zM512 819.2M768 419.2l-220.8 0L547.2 640c0 19.2-16 35.2-35.2 35.2-19.2 0-35.2-16-35.2-35.2l0-220.8L256 419.2c-19.2 0-35.2-16-35.2-35.2 0-19.2 16-35.2 35.2-35.2l220.8 0 0-220.8c0-19.2 16-35.2 35.2-35.2 19.2 0 35.2 16 35.2 35.2l0 220.8L768 348.8c19.2 0 35.2 16 35.2 35.2C803.2 403.2 787.2 419.2 768 419.2L768 419.2zM768 419.2"  horiz-adv-x="1025" />

    
    <glyph glyph-name="jiantou-copy" unicode="&#58919;" d="M702.882-62.388l64.032 63.397-380.993 383.606 384.196 380.377-63.49 63.925-448.221-443.779z"  horiz-adv-x="1024" />

    
    <glyph glyph-name="qiabao" unicode="&#59002;" d="M937.562644-127.996244l-820.408781 0c-64.675292 0-117.153863 52.413475-117.153863 117.155115l0 556.630133c0 43.31507 23.800067 80.827841 58.874245 101.001314 0 0.132696-0.132696 0.19654-0.132696 0.330487-4.217464 15.624271 807.092912 248.877944 807.092912 248.877944 33.425499 0 44.765958-31.316141 42.457556-56.962678l0-176.026856 29.271879 0c64.675292 0 117.155115-52.478571 117.155115-117.153863L1054.719011 370.088879l0-234.436666 0-146.49209C1054.717759-75.582769 1002.237936-127.996244 937.562644-127.996244M844.674534 823.350459l-542.804762-160.407593 542.804762 0 0 167.918659L844.674534 823.350459zM988.957118 311.576417l-197.886564-0.161488 0-117.155115 197.886564 0.163992L988.957118 311.576417zM989.42656 130.379443 784.813836 130.379443c-31.973359 0-57.770118 25.799262-57.770118 57.772622l0.156481 129.306769c0 31.907011 25.734166 57.836466 57.770118 57.836466l204.612724 0-0.168999 166.516594c0 31.908263-25.801766 57.773873-57.772622 57.773873l-808.627673 0c-31.909515 0-57.773873-25.800514-57.773873-57.773873l0-548.68092c0-31.907011 25.864358-57.772622 57.773873-57.772622l808.627673 0c31.907011 0 57.772622 25.799262 57.772622 57.772622l0 144.400258L989.42656 130.379443z"  horiz-adv-x="1055" />

    
    <glyph glyph-name="qunliao" unicode="&#58898;" d="M896.631124 190.389444l-162.718989 63.414285c0 0-31.03176 12.046361-43.087331 23.895223-7.749498 7.616468-7.188726 25.583678-0.331551 48.535413 6.856152 22.951735 90.273003 116.226095 90.273003 200.955848 0 130.854257-86.027305 236.94962-192.138018 236.94962-27.54638 0-53.725622-7.179516-77.410044-20.058848 2.912329-0.522909 5.805216-1.12359 8.674567-1.804089 88.643899-21.041222 155.617244-117.202329 155.617244-232.655827 0-84.729753-83.416851-178.004113-90.273003-200.955848-6.857175-22.951735-7.417947-40.918945 0.331551-48.535413 12.05557-11.848862 43.087331-23.895223 43.087331-23.895223l162.718989-63.414285c34.276664-12.30628 61.129242-45.61592 61.129242-82.089623l0-17.296945c0-19.655665-7.893784-35.534308-20.660552-46.581921l53.861722 0c39.73191 0 72.055083 24.352641 72.055083 64.151066l0 17.296945C957.760366 144.773524 930.908812 178.083164 896.631124 190.389444zM738.037083 170.845319l-162.718989 63.414285c0 0-31.03176 12.046361-43.087331 23.895223-7.749498 7.616468-7.188726 25.583678-0.331551 48.535413 6.856152 22.951735 90.273003 116.226095 90.273003 200.955848 0 115.452475-66.973344 211.614605-155.617244 232.655827-2.869351 0.680499-5.761214 1.281179-8.674567 1.804089-9.092076 1.633197-18.386766 2.489704-27.846208 2.489704-106.10355 0-192.121646-106.096387-192.121646-236.956783 0-81.153298 74.332962-177.899736 83.504856-195.48423 9.18008-17.584494 6.945179-44.384883-0.301875-52.502771-10.881838-12.19474-50.64547-24.419156-50.64547-24.419156l-146.68992-65.375963c-34.269501-12.311397-61.121056-44.63457-61.121056-81.101109l0-17.296945c0-39.798425 32.32215-64.151066 72.04792-64.151066l246.033509 0 84.331687 0 262.039042 0c20.10899 0 38.311561 6.247284 51.394531 17.569144 12.766768 11.047614 20.660552 26.927279 20.660552 46.581921l0 17.296945C799.166325 125.229398 772.313747 158.539039 738.037083 170.845319z"  horiz-adv-x="1024" />

    
    <glyph glyph-name="jingyin" unicode="&#59077;" d="M298.164706 697.223529c60.235294 57.223529 138.541176 72.282353 183.717647 75.294118v30.117647c0 18.070588 12.047059 30.117647 30.117647 30.117647s30.117647-12.047059 30.117647-30.117647v-30.117647c222.870588-9.035294 262.023529-180.705882 262.023529-301.176471 0-126.494118 30.117647-262.023529 99.388236-346.352941 69.270588-84.329412 0-102.4-39.152941-102.4h-96.376471l-42.164706 57.22353h72.282353c72.282353 0 63.247059-3.011765 18.070588 66.258823s-78.305882 207.811765-78.305882 316.235294c0 108.423529-24.094118 256-225.882353 249.976471-3.011765 0-111.435294 9.035294-177.694118-69.270588l-36.141176 54.211764z m-66.258824-114.447058c-9.035294-30.117647-12.047059-66.258824-12.047058-105.411765 0-138.541176-36.141176-268.047059-93.364706-343.341177-57.223529-72.282353-39.152941-108.423529 18.070588-108.423529h478.870588l-42.164706 60.235294h-376.470588c-60.235294 0-18.070588 24.094118 6.023529 72.282353 27.105882 48.188235 72.282353 189.741176 72.282353 310.211765 0 15.058824 0 30.117647 3.011765 45.17647l-54.211765 69.270589z m280.094118-680.658824c90.352941 0 90.352941 90.352941 90.352941 90.352941h-180.705882s0-90.352941 90.352941-90.352941z m-334.305882 810.164706c-9.035294 12.047059-6.023529 33.129412 6.023529 42.164706 15.058824 9.035294 33.129412 6.023529 42.164706-6.02353l548.141176-783.058823c9.035294-12.047059 6.023529-33.129412-6.023529-42.164706-15.058824-9.035294-33.129412-6.023529-42.164706 6.023529l-548.141176 783.058824z"  horiz-adv-x="1024" />

    
    <glyph glyph-name="QR" unicode="&#59370;" d="M468.8 692.8H201.6v-267.2h267.2V692.8z m-32-235.2H233.6V660.8h203.2v-203.2zM395.2 619.2h-120v-120h120v120z m-16-104h-88v88h88v-88zM752 619.2h-120v-120H752v120z m-16-104h-88v88H736v-88zM822.4 692.8H555.2v-267.2h267.2V692.8z m-32-235.2H587.2V660.8h203.2v-203.2zM395.2 260.79999999999995h-120v-120h120v120z m-16-104h-88v88h88v-88zM468.8 342.4H201.6v-267.2h267.2V342.4z m-32-235.2H233.6V310.4h203.2v-203.2zM504 692.8h16v-616h-16zM561.6 385.6h16v-308.8h-16zM201.6 390.4h265.6v-16H201.6zM681.6 76.79999999999995h142.4v142.4h-142.4v-142.4z m32 108.8h78.4v-78.4h-78.4v78.4zM619.2 385.6h16v-308.8h-16zM681.6 385.6h16v-120h-16zM742.4 385.6h16v-120h-16zM806.4 385.6h16v-120h-16z"  horiz-adv-x="1024" />

    
    <glyph glyph-name="yaoyiyao" unicode="&#58625;" d="M425.7 638.927l112.435 30.67c5.424 1.48 8.616 7.056 7.128 12.454-1.486 5.398-7.090 8.576-12.515 7.096l-112.434-30.67c-5.425-1.479-8.618-7.057-7.13-12.455 1.487-5.398 7.092-8.575 12.516-7.095v0 0zM824.275 188.249l-6.131 22.257c15.751 16.832 22.643 41.142 16.086 64.953-5.516 20.025-19.408 35.516-36.874 43.801 17.408 17.265 25.261 43.084 18.3 68.353-6.292 22.839-23.226 39.921-44.008 47.443 14.024 17.016 19.835 40.302 13.545 63.141-6.292 22.84-23.223 39.921-44.008 47.442 14.025 17.017 19.836 40.302 13.543 63.141-7.883 28.619-32.467 48.207-60.415 51.248l-20.719 75.207c-8.943 32.461-42.633 51.561-75.255 42.662l-281.931-76.905c-32.621-8.897-51.815-42.426-42.873-74.885l8.35-30.311c-27.773-16.558-49.489-39.577-64.643-60.81-17.779-24.914-30.34-79.611-34.219-108.905-3.877-29.295 21.935-85.046 25.465-92.442 3.531-7.395 18.216-30.884-8.907-59.831-27.122-28.948-94.529-68.887-109.037-83.989-14.508-15.102-43.749-66.177 5.638-109.923 49.388-43.746 145.497-121.559 145.497-121.559 0 0 68.409-50.445 114.308 13.346l45.899 63.793 23.556 39.754c10.472-30.071 42.735-47.306 74.026-38.769l281.931 76.904c32.627 8.898 51.819 42.427 42.876 74.886v0 0zM779.261 215.451l-91.908-25.073c-23.238-6.336-47.238 7.269-53.608 30.392-6.37 23.124 7.302 47.006 30.54 53.345l91.908 25.072c23.236 6.338 47.237-7.268 53.608-30.391 6.368-23.126-7.304-47.007-30.54-53.345v0 0zM790.652 380.791c6.52-23.667-7.475-48.111-31.258-54.598l-111.108-30.309c-0.009 0-0.015-0.002-0.021-0.004-23.782-6.488-48.347 7.436-54.867 31.104-6.518 23.666 7.476 48.11 31.26 54.598l111.128 30.313c23.782 6.488 48.346-7.439 54.866-31.104v0 0zM760.19 491.376c6.52-23.666-7.476-48.111-31.259-54.598l-111.109-30.31c-0.007-0.002-33.351-9.096-33.358-9.099-23.783-6.487-48.348 7.439-54.867 31.106-6.52 23.667 7.476 48.111 31.259 54.598l144.467 39.408c23.781 6.487 48.345-7.439 54.867-31.104v0 0zM729.727 601.959c6.52-23.666-7.475-48.111-31.259-54.598l-111.109-30.308c-0.006-0.002-0.012-0.004-0.021-0.006-23.782-6.488-48.346 7.439-54.866 31.104-6.52 23.667 7.475 48.111 31.258 54.598l111.131 30.315c23.781 6.486 48.345-7.44 54.866-31.106v0 0zM313.109 612.572c-6.707 24.345 7.689 49.491 32.154 56.164l245.827 67.059c24.465 6.673 49.736-7.653 56.441-31.998l13.18-47.841-28.503-7.776c-7.079 10.786-20.578 16.308-33.733 12.72l-215.976-58.915c-6.319-1.724-11.624-5.302-15.501-9.976-9.94 6.438-31.014 17.935-52.714 16.293l-1.176 4.269zM321.699 451.273l91.029-330.444-85.512-120.586c0 0-23.64-36.172-54.175-14.779-30.535 21.394-30.535 21.394-30.535 21.394l-123.497 106.754c0 0-24.352 26.053-1.767 47.075 22.585 21.022 22.585 21.022 22.585 21.022 0 0 58.871 46.524 75.653 61.506 16.782 14.981 53.79 43.282 30.518 100.653-23.272 57.37-24.548 67.425-24.76 84.459-0.211 17.032 15.070 67.274 25.782 88.029 0 0 17.69 28.822 44.353 46.043 9.456 6.043 19.015 9.597 26.268 11.157 14.059 2.515 26.814-1.36 37.672-7.084 1.555-0.603 3.925-1.776 6.915-3.386 0.406-0.218 0.823-0.446 1.252-0.68 0.317-0.174 0.634-0.347 0.962-0.529 0.314-0.175 0.638-0.354 0.961-0.535 0.314-0.177 0.635-0.355 0.958-0.538 0.338-0.19 0.672-0.378 1.019-0.575 0.381-0.215 0.774-0.441 1.166-0.666 0.579-0.331 1.171-0.671 1.777-1.021 0.334-0.193 0.667-0.385 1.010-0.584 0.414-0.242 0.835-0.486 1.259-0.735 0.321-0.188 0.648-0.379 0.975-0.572 0.447-0.262 0.891-0.522 1.347-0.791 0.216-0.127 0.441-0.262 0.66-0.39 0.935-0.552 1.889-1.121 2.866-1.703 0.317-0.189 0.634-0.377 0.954-0.57 0.508-0.304 1.020-0.611 1.537-0.921 0.337-0.202 0.677-0.407 1.018-0.612 1.776-1.069 3.604-2.176 5.479-3.317 0.355-0.216 0.71-0.432 1.068-0.651 0.543-0.331 1.087-0.663 1.636-0.998 0.402-0.247 0.808-0.495 1.213-0.743 39.029-23.911 93.967-59.716 93.967-59.716-7.586-42.939-29.354-61.509-76.852-62.576-2.927-0.065-5.798-0.032-8.611 0.085-10.615 0.028-36.54 6.596-36.54 6.596-22.618 7.287-37.529 18.242-41.61 20.927v0 0zM508.621 75.736c-24.465-6.674-49.736 7.65-56.442 31.995l-78.057 283.357c14.245-2.496 35.44-2.602 35.44-2.602l50.403-182.964c4.471-16.229 21.317-25.783 37.628-21.334l105.047 28.658c0.046-0.177 0.084-0.351 0.133-0.526 1.399-5.081 3.357-9.862 5.756-14.319-15.667-5.537-24.618-22.25-20.153-38.464 4.68-16.985 22.31-26.982 39.381-22.325 12.976 3.54 21.884 14.528 23.359 27.055 11.53-3.143 24.026-3.357 36.391 0.017l98.452 26.855c0.682 0.185 1.347 0.401 2.019 0.605 2.386-21.916-11.477-42.938-33.526-48.951l-245.83-67.057zM149.616 658.056c2.97-0.852 5.984-0.822 8.762-0.064 5.264 1.437 9.675 5.485 11.299 11.086 17.196 59.299 62.116 107.257 120.163 128.288 8.409 3.046 12.744 12.3 9.682 20.668-3.062 8.367-12.347 12.672-20.77 9.634-67.74-24.543-120.156-80.487-140.212-149.65-2.482-8.555 2.477-17.493 11.076-19.962v0 0zM302.503 762.486c-46.704-16.978-82.92-55.568-96.879-103.232-2.504-8.549 2.431-17.499 11.024-19.992 2.981-0.864 6.011-0.837 8.803-0.075 5.25 1.431 9.651 5.463 11.287 11.046 11.084 37.852 39.827 68.491 76.883 81.962 8.406 3.056 12.73 12.314 9.661 20.678-3.069 8.364-12.373 12.668-20.778 9.613v0 0zM942.196 178.567c-3.076 0.294-6.034-0.287-8.625-1.541-4.907-2.375-8.494-7.164-9.057-12.966-5.937-61.432-41.222-116.795-94.392-148.097-7.702-4.533-10.252-14.421-5.696-22.087 4.558-7.663 14.478-10.195 22.198-5.666 62.045 36.526 103.224 101.111 110.15 172.764 0.858 8.865-5.669 16.745-14.578 17.594v0 0zM887.364 167.136c0.88 8.862-5.627 16.756-14.53 17.633-3.092 0.303-6.066-0.277-8.668-1.539-4.896-2.366-8.476-7.136-9.052-12.923-3.896-39.234-26.484-74.613-60.418-94.64-7.698-4.542-10.237-14.434-5.671-22.094 4.564-7.659 14.506-10.187 22.203-5.642 42.768 25.238 71.229 69.8 76.136 119.205v0 0z"  horiz-adv-x="1024" />

    
    <glyph glyph-name="gongzhonghao" unicode="&#58941;" d="M633.232852 239.141747c0 93.152244 143.916029 152.151766 143.916029 368.258457C777.148881 789.889265 659.21963 894.743701 512 894.743701c-147.149835 0-265.125616-104.854436-265.125616-287.343497 0-216.106691 143.869499-275.106214 143.869499-368.258457 0-150.825673-325.451233-109.204953-325.451233-255.796433V-127.651028l893.484494-0.348972V-16.677951c-0.023265 146.59148-325.544292 104.97076-325.544292 255.819698zM511.720822-72.978757l-78.844394 107.483358 52.57844 188.188935h52.531909l52.578439-188.188935-78.844394-107.483358z"  horiz-adv-x="1024" />

    
    <glyph glyph-name="jiantou-copy1" unicode="&#58673;" d="M792.17-77.927l-49.071-49.085-511.266 511.121 49.071 49.085 511.266-511.121zM280.827 335.139l-49.065 49.092 511.338 511.049 49.065-49.092-511.338-511.049z"  horiz-adv-x="1024" />

    
    <glyph glyph-name="jiantou" unicode="&#59444;" d="M345.102-56.874000000000024c-8.44899999 0-16.903 3.224-23.35 9.67-12.897 12.9-12.897 33.805 0 46.704l384.502 384.501-384.502 384.502c-12.897 12.896-12.897 33.805 0 46.7 12.893 12.895 33.803 12.895 46.703 0l407.853-407.853c12.895-12.895 12.895-33.805 0-46.7l-407.853-407.854c-6.45-6.446-14.903-9.66999999-23.353-9.67z"  horiz-adv-x="1024" />

    
    <glyph glyph-name="jt-right" unicode="&#58626;" d="M299.262661-107.73767799999996L760.056481 360.25825399999997C767.804573 367.66366200000004 772.318027 378.816383 772.318027 390.682882 772.318027 402.460157 767.804573 413.702102 760.056481 421.018286L300.616696 887.408227C286.474548 900.880715 265.787896 898.204063 254.429043 881.430365 243.07019 864.656671 245.326916 840.120684 259.469064 826.648196L687.013792 390.593659 258.039804-46.97764600000005C243.897656-60.450135000000046 241.640931-84.98612400000002 252.999783-101.759818 259.544288-111.30654900000002 269.022536-116.30296799999996 278.651232-116.30296799999996 285.872755-116.30296799999996 293.169501-113.44787199999996 299.262661-107.73767799999996Z"  horiz-adv-x="1024" />

    
    <glyph glyph-name="xiangjia" unicode="&#59353;" d="M480 416V608a32 32 0 0 0 64 0v-192h224a32 32 0 0 0 0-64h-224v-192a32 32 0 0 0-64 0v192H256a32 32 0 0 0 0 64h224z m32-544C229.216-128 0 101.216 0 384S229.216 896 512 896s512-229.216 512-512-229.216-512-512-512z m0 64c247.424 0 448 200.576 448 448S759.424 832 512 832 64 631.424 64 384s200.576-448 448-448z"  horiz-adv-x="1024" />

    
    <glyph glyph-name="xiangce1" unicode="&#58638;" d="M320.91459 506.001994L17.01562 184.747092l19.738119-150.077767h947.089398l16.675308 76.229977-253.532735 223.585244-137.486209-168.454636 2.041875-23.481555-10.209372 13.272183-280.417414 350.181456zM971.932203 696.236623H52.067797c-22.460618 0-40.837488-17.355932-40.837488-38.795613v-616.646062c0-21.099369 18.376869-38.795613 40.837488-38.795613h919.864406c22.460618 0 40.837488 17.355932 40.837488 38.795613V657.44101c0 21.439681-18.376869 38.795613-40.837488 38.795613zM959.340645 48.622134H64.659355V649.613825h894.68129V48.622134z"  horiz-adv-x="1024" />

    
    <glyph glyph-name="pengyouquan" unicode="&#58983;" d="M505.263158 896c-13.473684 0-33.684211 0-53.894737-6.736842-47.157895 0-87.578947-13.473684-134.736842-26.947369 0 0 343.578947-336.842105 350.315789-350.315789V869.052632C660.210526 875.789474 653.473684 875.789474 640 875.789474 599.578947 889.263158 552.421053 896 505.263158 896zM869.052632 747.789474l-40.421053 40.421052c-33.684211 26.947368-74.105263 53.894737-114.526316 67.368421V357.052632l256 256c-6.736842 6.736842-6.736842 20.210526-13.473684 26.947368-33.684211 40.421053-60.631579 74.105263-87.578947 107.789474zM976.842105 572.631579s-336.842105-343.578947-350.315789-350.31579h363.789473c6.736842 13.473684 6.736842 20.210526 6.736843 33.684211 13.473684 40.421053 20.210526 87.578947 20.210526 128 0 20.210526 0 40.421053-6.736842 60.631579-6.736842 47.157895-13.473684 87.578947-33.684211 128zM478.315789 181.894737l256-256c6.736842 6.736842 20.210526 6.736842 26.947369 13.473684 40.421053 20.210526 74.105263 47.157895 107.789474 80.842105l40.421052 40.421053c26.947368 33.684211 53.894737 74.105263 67.368421 114.526316-6.736842 6.736842-485.052632 6.736842-498.526316 6.736842zM343.578947 262.736842v-363.789474c13.473684-6.736842 20.210526-6.736842 33.684211-6.736842 40.421053-13.473684 87.578947-20.210526 128-20.210526 20.210526 0 40.421053 0 60.631579 6.736842 47.157895 6.736842 87.578947 13.473684 134.736842 33.684211-6.736842 0-343.578947 343.578947-357.052632 350.315789zM309.894737 417.684211L53.894737 161.684211c6.736842-6.736842 6.736842-20.210526 13.473684-26.947369 20.210526-40.421053 47.157895-74.105263 80.842105-107.789474l40.421053-40.421052c33.684211-26.947368 74.105263-53.894737 114.526316-67.368421 6.736842 0 0 478.315789 6.736842 498.526316zM20.210526 518.736842c-13.473684-40.421053-20.210526-87.578947-20.210526-134.736842 0-20.210526 0-40.421053 6.736842-60.631579 6.736842-47.157895 13.473684-87.578947 33.684211-134.736842 0 0 336.842105 343.578947 350.315789 350.315789H26.947368c-6.736842 0-6.736842-6.736842-6.736842-20.210526zM256 828.631579c-40.421053-26.947368-74.105263-53.894737-107.789474-80.842105-13.473684-13.473684-26.947368-33.684211-40.421052-47.157895-26.947368-33.684211-47.157895-74.105263-67.368421-114.526316H538.947368L282.947368 842.105263c-13.473684-6.736842-20.210526-13.473684-26.947368-13.473684z"  horiz-adv-x="1030" />

    
    <glyph glyph-name="youxi" unicode="&#58959;" d="M467.51993191 790.47992631v-205.63719703c-78.18133059-17.28808291-140.12446206-79.30120656-157.48253716-157.97248344H103.84025925c-32.89635234 0-49.34452803 39.75559156-26.10710434 63.06300744L404.45692544 816.58703163c23.30741588 23.30741588 63.06300744 6.78924703 63.06300647-26.10710532zM467.51993191 181.757426v-205.63719703c0-32.89635234-39.75559156-49.34452803-63.06300647-26.10710531L77.73315491 276.73689419000004c-23.23742369 23.23742369-6.78924703 63.06300744 26.10710434 63.06300743h206.1971355c17.35807509-78.81126125 79.30120656-140.75439175 157.48253716-158.04247562zM944.86700037 276.66690200000005l-326.65377834-326.23382522c-23.23742369-23.23742369-62.99301525-6.78924703-62.99301428 26.10710531V181.757426c78.74126906 17.28808291 140.12446206 79.30120656 157.48253716 157.97248344h206.12714331c32.82636016 0 49.27453584-39.75559156 26.03711215-63.06300744zM918.75989603 426.87024584H712.63275272c-17.28808291 78.74126906-78.74126906 140.68439956-157.48253716 157.97248344V790.0599731899999c0 32.89635234 39.75559156 49.34452803 62.99301428 26.10710531L944.79700819 489.93325328c23.30741588-23.30741588 6.85923922-63.06300744-26.03711216-63.06300744z"  horiz-adv-x="1024" />

    
    <glyph glyph-name="tongxunlu" unicode="&#58901;" d="M20.945455-128l-6.981819 9.309091c-6.981818 9.309091-11.636364 32.581818-13.963636 51.2V-11.636364c9.309091 32.581818 39.563636 62.836364 109.381818 100.072728 16.290909 9.309091 65.163636 34.909091 93.090909 48.872727l18.618182 9.309091c102.4 55.854545 155.927273 97.745455 188.509091 148.945454 0 4.654545 2.327273 4.654545 0 16.290909v11.636364h-2.327273l-2.327272 2.327273c-2.327273 2.327273-6.981818 4.654545-13.963637 13.963636l-11.636363 13.963637-13.963637 13.963636c-4.654545 4.654545-6.981818 6.981818-11.636363 9.309091l-4.654546 9.309091c-62.836364 69.818182-90.763636 144.290909-86.109091 225.745454-2.327273 76.8 25.6 151.272727 79.127273 204.8 51.2 51.2 116.363636 79.127273 183.854545 79.127273 69.818182 0 134.981818-27.927273 183.854546-79.127273 53.527273-53.527273 81.454545-128 79.127273-204.8 4.654545-81.454545-23.272727-158.254545-86.109091-225.745454l-2.327273-2.327273c-4.654545-2.327273-6.981818-6.981818-11.636364-9.309091l-13.963636-13.963636c-2.327273-2.327273-6.981818-9.309091-9.309091-11.636364-9.309091-11.636364-13.963636-13.963636-16.290909-16.290909l-4.654546-2.327273h-2.327272v-27.927272c34.909091-53.527273 86.109091-95.418182 188.509091-148.945455l18.618181-9.309091c27.927273-13.963636 76.8-41.890909 93.09091-48.872727 67.490909-37.236364 100.072727-67.490909 109.381818-100.072727v-55.854546c0-6.981818-2.327273-39.563636-13.963637-51.2l-6.981818-16.290909h-11.636363c-83.781818 2.327273-914.618182 2.327273-986.763637 0H20.945455z m500.363636 48.872727c204.8 0 411.927273 0 481.745454-2.327272 0 4.654545 2.327273 9.309091 2.327273 16.290909v41.890909c-6.981818 18.618182-34.909091 41.890909-86.109091 69.818182-16.290909 9.309091-65.163636 34.909091-93.090909 48.872727l-18.618182 9.309091c-109.381818 58.181818-167.563636 104.727273-204.8 165.236363l-6.981818 11.636364V360.727273l27.927273 6.981818c0 2.327273 2.327273 2.327273 4.654545 4.654545 4.654545 4.654545 9.309091 11.636364 11.636364 13.963637 4.654545 6.981818 11.636364 11.636364 16.290909 16.290909l11.636364 11.636363c53.527273 60.509091 76.8 121.018182 74.472727 193.163637 2.327273 65.163636-23.272727 128-65.163636 172.218182-41.890909 46.545455-95.418182 69.818182-151.272728 69.818181-55.854545 0-109.381818-23.272727-151.272727-65.163636-44.218182-44.218182-67.490909-109.381818-65.163636-174.545454-4.654545-72.145455 20.945455-134.981818 74.472727-193.163637 4.654545-4.654545 9.309091-6.981818 11.636364-11.636363 4.654545-4.654545 9.309091-11.636364 16.290909-16.29091l9.309091-11.636363c2.327273-2.327273 4.654545-4.654545 4.654545-6.981818l27.927273-6.981819V318.836364c0-13.963636 0-20.945455-2.327273-32.581819l-4.654545-11.636363c-39.563636-60.509091-95.418182-107.054545-204.8-165.236364-2.327273 0-9.309091-4.654545-18.618182-9.309091-27.927273-13.963636-74.472727-39.563636-90.763637-48.872727-51.2-27.927273-79.127273-51.2-86.10909-69.818182v-41.890909c0-6.981818 2.327273-11.636364 2.327272-16.290909 67.490909-2.327273 269.963636-2.327273 472.436364-2.327273zM914.618182 593.454545H1256.727273v-69.818181H914.618182zM982.109091 407.272727H1256.727273v-69.818182H982.109091zM1051.927273 221.090909H1256.727273v-69.818182h-204.8z"  horiz-adv-x="1280" />

    
    <glyph glyph-name="pengyouquan1" unicode="&#58892;" d="M662.4 809.6S601.6 832 512 832c-92.8 0-150.4-28.8-150.4-28.8l304-300.8-3.2 307.2zM825.6 700.8c-64 64-128 86.4-128 86.4l-3.2-425.6 217.6 217.6c3.2 0-22.4 57.6-86.4 121.6zM928 534.4l-307.2-300.8h310.4s25.6 60.8 25.6 150.4-28.8 150.4-28.8 150.4zM700.8-19.2s60.8 25.6 124.8 89.6 86.4 124.8 86.4 124.8L480 198.4l220.8-217.6zM358.4-38.4s60.8-22.4 150.4-22.4c92.8 0 150.4 28.8 150.4 28.8l-304 300.8v-307.2zM195.2 70.4c64-64 128-86.4 128-86.4l3.2 425.6L105.6 192s25.6-57.6 89.6-121.6zM89.6 534.4S64 473.6 64 384s28.8-150.4 28.8-150.4l307.2 300.8H89.6zM320 790.4s-60.8-25.6-124.8-89.6c-64-64-86.4-124.8-86.4-124.8l432-3.2L320 790.4z"  horiz-adv-x="1024" />

    
    <glyph glyph-name="shipintonghua" unicode="&#58887;" d="M771.126 315.398v129.248c0 12.924 4.308 27.808 10.264 33.994l141.466 145.618c46.294 47.624 99.558 61.018 99.558 9.948v-508.444c0-50.994-53.264-37.68-99.558 9.946l-141.466 145.616c-5.954 6.114-10.264 21.076-10.264 34.074z m-66.892-143.42c0-43.264-35.07-78.332-78.33-78.332H79.156c-43.26 0-78.332 35.068-78.332 78.332V588.148c0 43.258 35.072 78.332 78.332 78.332h546.75c43.26 0 78.33-35.072 78.33-78.332v-416.17z"  horiz-adv-x="1024" />

    
    <glyph glyph-name="liaotian" unicode="&#58897;" d="M524.8 806.4c225.28 0 409.6-184.32 409.6-409.6s-184.32-409.6-409.6-409.6c-46.08 0-92.16 7.68-135.68 23.04l-17.92 5.12-17.92-5.12c-46.08-15.36-87.04-23.04-130.56-23.04h-5.12c12.8 7.68 23.04 17.92 33.28 25.6l46.08 38.4-43.52 38.4c-87.04 76.8-138.24 189.44-138.24 304.64 0 227.84 184.32 412.16 409.6 412.16m0 51.2c-253.44 0-460.8-207.36-460.8-460.8 0-138.24 61.44-258.56 156.16-343.04-33.28-28.16-69.12-51.2-110.08-69.12 28.16-20.48 66.56-46.08 110.08-48.64h7.68c51.2 0 99.84 10.24 145.92 25.6 48.64-17.92 99.84-25.6 153.6-25.6 253.44 0 460.8 207.36 460.8 460.8s-209.92 460.8-463.36 460.8zM294.4 448c-28.16 0-51.2-23.04-51.2-51.2s23.04-51.2 51.2-51.2 51.2 23.04 51.2 51.2-23.04 51.2-51.2 51.2z m230.4 0c-28.16 0-51.2-23.04-51.2-51.2s23.04-51.2 51.2-51.2 51.2 23.04 51.2 51.2-23.04 51.2-51.2 51.2z m230.4 0c-28.16 0-51.2-23.04-51.2-51.2s23.04-51.2 51.2-51.2 51.2 23.04 51.2 51.2-23.04 51.2-51.2 51.2z"  horiz-adv-x="1024" />

    
    <glyph glyph-name="biaoqing-" unicode="&#59157;" d="M512-123.392C230.912-123.392 2.56 104.96 2.56 386.048S230.912 896 512 896s509.44-228.352 509.44-509.44-228.352-509.952-509.44-509.952z m0 946.688c-240.64 0-436.736-196.096-436.736-436.736S271.36-50.176 512-50.176s436.736 196.096 436.736 436.736S752.64 823.296 512 823.296zM369.664 402.944c-30.208 0-54.784 24.576-54.784 54.784V530.432c0 30.208 24.576 54.784 54.784 54.784 30.208 0 54.784-24.576 54.784-54.784v-72.704c0-30.208-24.576-54.784-54.784-54.784z m286.72 0c-30.208 0-54.784 24.576-54.784 54.784V530.432c0 30.208 24.576 54.784 54.784 54.784 30.208 0 54.784-24.576 54.784-54.784v-72.704c0-30.208-24.576-54.784-54.784-54.784zM520.704 56.32c-137.216 0-248.32 111.104-248.32 248.32v24.064h496.64v-24.064c0-137.216-111.616-248.32-248.32-248.32z m0 61.44c87.552 0 159.744 65.536 169.984 149.504H350.72c9.728-83.968 82.432-149.504 169.984-149.504z"  horiz-adv-x="1024" />

    
    <glyph glyph-name="yuyinshuru" unicode="&#58968;" d="M863.231062 609.332572L657.289764 261.739717c-43.487916-73.400579-160.836771-84.267205-262.105161-24.259876-101.279096 59.996623-148.118001 168.138287-104.630085 241.538867L496.495817 826.611562c43.487916 73.400579 160.836771 84.256499 262.10516 24.259876s148.118001-168.138287 104.630085-241.538866zM349.245004 146.061004s150.933688-108.45214 342.593136 32.118106c57.876828 61.088638 107.060355 139.178461 107.060355 139.178462l53.530177-32.118107s-101.37545-227.524666-353.299171-246.238816c-63.872208-4.742774-117.76639 21.412071-117.76639 21.412071l-74.942249-107.060355-107.060354 64.236213 64.236213 107.060355S134.235694 210.789695 135.124295 403.005856c0.588832 126.738048 85.648284 256.944852 85.648284 256.944851l53.530177-42.824141s-62.983607-83.838964-74.942248-224.826746 149.884497-246.238816 149.884496-246.238816zM188.654472-121.589883V-14.529528l96.354319-53.530178-96.354319-53.530177z"  horiz-adv-x="1024" />

    
    <glyph glyph-name="hongbao" unicode="&#59337;" d="M839.805 832h-655.61c-36.058 0-65.561-29.502-65.561-65.561v-60.967c75.758-95.106 185.245-162.16 310.405-182.958 11.511 34.829 44.273 59.991 82.961 59.991s71.45-25.162 82.961-59.991c125.16 20.797 234.647 87.852 310.405 182.958v60.967c0 36.059-29.503 65.561-65.561 65.561zM512 407.676c-41.185 0-75.625 28.518-84.883 66.86-113.769 14-218.869 55.848-308.483 118.349v-591.324c0-36.059 29.503-65.561 65.561-65.561h655.61c36.058 0 65.561 29.502 65.561 65.561V592.885c-89.614-62.501-194.714-104.349-308.483-118.349-9.258-38.343-43.698-66.86-84.883-66.86z"  horiz-adv-x="1024" />

    
    <glyph glyph-name="c" unicode="&#58895;" d="M942.9 347.9H77.6c-7.5 0-13.6-6.1-13.6-13.6v-102.1c0-7.5 6.1-13.6 13.6-13.6h469c7.5 0 13.6-6.1 13.6-13.6v-160.3c0-11.3 12.9-17.7 21.9-10.8l371 283.4c13.1 9.8 6.1 30.6-10.2 30.6zM946.4 549.4h-469c-7.5 0-13.6 6.1-13.6 13.6V723.4c0 11.3-12.9 17.7-21.9 10.8l-371-283.4c-13-9.9-6-30.7 10.4-30.7h865.2c7.5 0 13.6 6.1 13.6 13.6V535.8c-0.1 7.5-6.2 13.6-13.7 13.6z"  horiz-adv-x="1024" />

    
    <glyph glyph-name="hongbao1" unicode="&#58900;" d="M950.85696 859.428571a365.714286 365.714286 0 0 0-336.091429-365.714285 109.714286 109.714286 0 0 1-205.531428 0A365.714286 365.714286 0 0 0 73.142674 859.428571a36.571429 36.571429 0 0 0 36.571429 36.571429h804.571428a36.571429 36.571429 0 0 0 36.571429-36.571429zM950.85696 603.428571v-694.857142a36.571429 36.571429 0 0 0-36.571429-36.571429H109.714103a36.571429 36.571429 0 0 0-36.571429 36.571429V603.428571a666.331429 666.331429 0 0 1 329.142857-157.988571 109.714286 109.714286 0 0 1 219.428572 0A666.331429 666.331429 0 0 1 950.85696 603.428571zM511.999817 585.142857a128 128 0 1 1 128-128A128 128 0 0 1 511.999817 585.142857z m0-219.428571a91.428571 91.428571 0 1 0 91.428572 91.428571 91.428571 91.428571 0 0 0-91.428572-91.428571z"  horiz-adv-x="1024" />

    
    <glyph glyph-name="biaoqing" unicode="&#58894;" d="M512-91.428571c262.582857 0 475.428571 212.845714 475.428571 475.428571S774.582857 859.428571 512 859.428571 36.571429 646.582857 36.571429 384s212.845714-475.428571 475.428571-475.428571z m0-36.571429C229.229714-128 0 101.229714 0 384S229.229714 896 512 896s512-229.229714 512-512-229.229714-512-512-512zM512 73.142857c104.923429 0 191.085714 80.347429 200.32 182.857143h-400.64C320.914286 153.490286 407.076571 73.142857 512 73.142857zM292.571429 292.571429h438.857142a18.285714 18.285714 0 0 0 18.285715-18.285715c0-131.291429-106.422857-237.714286-237.714286-237.714285s-237.714286 106.422857-237.714286 237.714285a18.285714 18.285714 0 0 0 18.285715 18.285715zM694.857143 475.428571m-73.142857 0a73.142857 73.142857 0 1 1 146.285714 0 73.142857 73.142857 0 1 1-146.285714 0ZM310.985143 475.428571m-73.142857 0a73.142857 73.142857 0 1 1 146.285714 0 73.142857 73.142857 0 1 1-146.285714 0Z"  horiz-adv-x="1024" />

    
    <glyph glyph-name="wo" unicode="&#58889;" d="M933.6-128H89.431l-5.68 3.287c-3.338 1.928-33.062 19.284-47.558 31.331C12.314-73.573-0.542-45.74 0.03-15.028l0.107 8.235c0.157 16.501 0.32 33.574 4.93 50.978 10.824 40.996 41.228 67.565 71.44 91.301 39.55 31.096 86.287 57.475 151.523 85.522 31.068 13.355 64.274 26.165 101.519 39.09 15.966 5.547 32.636 22.906 42.473 44.191 7.78 16.832 10.086 33.617 6.32 45.43l-1.817 2.143c-44.304 53.722-79.529 101.395-96.21 184.144-13.41 66.473-11.486 129.28 5.717 186.666C312.391 810.66 369.313 867.86 450.613 888.095c12.272 3.059 24.199 5.214 36.018 6.477V895.928L536.39 896v-1.428c11.807-1.263 23.759-3.418 36.042-6.49 81.287-20.223 138.196-77.422 164.57-165.408 17.178-57.378 19.103-120.172 5.725-186.656-16.727-82.77-51.94-130.447-96.23-184.155l-1.618-1.907c-0.071-0.07-0.118-0.143-0.166-0.215-3.779-11.927-1.472-28.666 6.297-45.45 9.838-21.307 26.493-38.643 42.46-44.164 37.14-12.93 70.334-25.714 101.535-39.118 65.22-28.047 111.935-54.426 151.523-85.521 28.868-22.69 60.59-50.307 71.426-91.328 4.585-17.333 4.751-34.377 4.918-50.854l0.12-8.333c0.568-30.712-12.285-58.545-36.19-78.377-14.494-12.024-44.173-29.38-47.521-31.308L933.6-128zM511.415 847.168h-0.32c-15.91-0.085-31.84-2.176-48.722-6.392-64.642-16.082-108.29-60.534-129.748-132.124-15.076-50.32-16.586-103.638-4.62-162.982 13.352-66.189 37.326-103.697 86.035-162.766 3.031-3.513 6.692-7.762 9.042-13.806 9.42-24.355 6.901-55.43-6.902-85.309-15.585-33.71-42.01-59.781-70.689-69.755-36.128-12.549-68.265-24.931-98.265-37.833-61.207-26.306-104.595-50.711-140.7-79.09-24.698-19.382-47.44-38.977-54.425-65.427-3.052-11.502-3.172-24.831-3.303-38.95l-0.107-8.642c-0.297-16.045 5.942-29.475 18.557-39.928 7.961-6.62 24.995-17.213 35.31-23.4l671.771 0.258 146.13-0.259c10.314 6.188 27.373 16.806 35.286 23.378 12.641 10.475 18.89 23.904 18.58 39.926l-0.12 8.76c-0.115 14.072-0.259 27.384-3.3 38.833-6.986 26.475-29.726 46.07-54.416 65.451-36.115 28.38-79.502 52.785-140.689 79.091-30.102 12.95-62.254 25.333-98.275 37.854-28.677 9.953-55.102 36.025-70.69 69.734-13.802 29.88-16.324 60.954-6.911 85.284 2.281 6.01 6.01 10.296 8.22 12.856 49.518 60.034 73.515 97.553 86.87 163.741 11.953 59.357 10.455 112.675-4.633 162.982-21.457 71.59-65.083 116.042-129.712 132.114-16.894 4.226-32.837 6.318-48.746 6.402h-0.508z"  horiz-adv-x="1024" />

    
    <glyph glyph-name="saoyisaoicon" unicode="&#58882;" d="M742.826667-42.666667c-170.453333 0-223.402667 119.104-238.442667 171.648l-154.069333 0.554667c-21.525333 4.416-61.930667 27.562667-60.714667 83.584 0.533333 24.938667 7.936 44.352 21.994667 57.685333a58.346667 58.346667 0 0 0 40.085333 16.128l397.098667 0.021334c9.621333 0.213333 21.205333 5.269333 22.058666 28.096 0.106667 6.336 0.064 13.653333 0 21.162666-0.298667 44.202667-0.64 94.314667 28.970667 124.138667 14.186667 14.293333 32.896 21.525333 55.573333 21.525333 52.736 0 73.237333-47.722667 74.368-80.661333l30.741334-280.810667-1.088-1.130666c-0.597333-39.082667-14.464-74.581333-39.573334-101.504-35.925333-38.528-92.949333-58.816-169.472-60.352l-0.554666 27.712 0.533333-27.712c-2.538667-0.064-5.034667-0.085333-7.509333-0.085334zM359.872 184.426667h191.125333l2.965334-24.384c0.789333-6.037333 21.653333-150.122667 195.264-147.221334 60.970667 1.237333 104.725333 15.616 130.048 42.752 17.216 18.453333 25.941333 43.861333 24.576 71.573334l-0.106667 2.069333-29.397333 269.589333c-0.149333 4.437333-1.856 27.626667-18.965334 27.626667-11.114667 0-14.826667-3.754667-16.234666-5.162667-13.354667-13.44-13.077333-54.613333-12.864-84.693333 0.064-8 0.106667-15.765333-0.021334-23.04-2.24-61.504-48.448-82.709333-78.058666-82.026667l-397.376-0.021333c-2.197333-0.362667-5.504-6.677333-5.802667-19.562667-0.426667-18.730667 8.981333-25.258667 14.848-27.498666z m-191.829333 101.674666c-52.757333 0-73.237333 47.701333-74.389334 80.64L64.341333 634.666667c-0.234667 1.344-8.554667 60.224 33.557334 110.186666 35.392 42.005333 93.994667 64.128 174.165333 65.728 175.616 4.224 230.677333-118.250667 245.952-171.562666l154.069333-0.554667c21.525333-4.416 61.930667-27.562667 60.736-83.584-0.533333-24.96-7.936-44.352-21.994666-57.706667-16.874667-16-36.394667-16.085333-40.085334-16.128l-397.098666-0.021333c-13.632-0.32-20.693333-9.6-21.013334-27.605333a814.08 814.08 0 0 1-0.021333-21.696c0.298667-44.181333 0.618667-94.272-28.970667-124.074667-14.208-14.314667-32.896-21.546667-55.594666-21.546667zM279.317333 755.2l-6.144-0.064c-63.061333-1.28-107.605333-16.554667-132.373333-45.44-26.112-30.421333-21.653333-66.602667-21.461333-68.117333l29.717333-272.426667c0.149333-4.437333 1.856-27.605333 18.986667-27.605333 11.114667 0 14.826667 3.754667 16.234666 5.162666 13.354667 13.44 13.077333 54.592 12.885334 84.650667-0.064 8-0.106667 15.786667 0.021333 23.082667 0.576 31.914667 13.354667 50.773333 23.978667 60.970666 21.952 21.098667 49.813333 21.333333 53.056 21.056l397.376 0.021334c2.197333 0.362667 5.504 6.677333 5.802666 19.562666 0.384 18.752-9.002667 25.28-14.869333 27.52h-191.104l-2.965333 24.384c-0.789333 5.952-21.184 147.242667-189.141334 147.242667z"  horiz-adv-x="1024" />

    
    <glyph glyph-name="fujinderenicon" unicode="&#58881;" d="M377.578667 503.168c0.490667 0 1.984 0 3.349333-1.429333 1.045333-1.066667 1.258667-2.176 1.301333-2.88L345.450667 11.306667h-72.256l-36.778667 487.552a4.458667 4.458667 0 0 0 1.301333 2.88c1.365333 1.429333 2.858667 1.429333 3.349334 1.429333h136.512m0 53.866667h-136.490667a58.538667 58.538667 0 0 1-58.496-60.608l40.384-535.381334c0.064-1.984 1.706667-3.584 3.712-3.584h165.290667c2.005333 0 3.626667 1.578667 3.712 3.584l40.384 535.381334a58.538667 58.538667 0 0 1-58.496 60.608zM309.226667 764.778667c29.418667 0 53.333333-23.936 53.333333-53.333334s-23.914667-53.333333-53.333333-53.333333-53.333333 23.936-53.333334 53.333333 23.914667 53.333333 53.333334 53.333334m0 53.333333a106.666667 106.666667 0 1 1 0.021333-213.354667 106.666667 106.666667 0 0 1-0.021333 213.354667zM272 11.328h73.344v-53.866667H272zM296 503.168h-79.104v30.442667c0 12.928 10.474667 23.424 23.424 23.424h55.701333v-53.866667zM394.56 503.168h-62.122667v53.866667h49.194667c7.125333 0 12.906667-5.781333 12.906667-12.906667v-40.96zM782.912 503.168c0.490667 0 1.984 0 3.349333-1.429333 1.045333-1.066667 1.258667-2.176 1.301334-2.88L750.784 11.306667h-72.256l-36.778667 487.552a4.458667 4.458667 0 0 0 1.301334 2.88c1.365333 1.429333 2.858667 1.429333 3.349333 1.429333h136.512m0 53.866667h-136.490667a58.538667 58.538667 0 0 1-58.496-60.608l40.384-535.381334c0.064-1.984 1.706667-3.584 3.712-3.584h165.290667c2.005333 0 3.626667 1.578667 3.712 3.584l40.384 535.381334a58.538667 58.538667 0 0 1-58.496 60.608zM714.56 764.778667c29.418667 0 53.333333-23.936 53.333333-53.333334s-23.914667-53.333333-53.333333-53.333333-53.333333 23.936-53.333333 53.333333 23.914667 53.333333 53.333333 53.333334m0 53.333333a106.666667 106.666667 0 1 1 0.021333-213.354667 106.666667 106.666667 0 0 1-0.021333 213.354667zM677.333333 11.328h73.344v-53.866667H677.333333zM701.333333 503.168h-79.104v30.442667c0 12.928 10.474667 23.424 23.424 23.424h55.701334v-53.866667zM799.893333 503.168h-62.122666v53.866667h49.194666c7.125333 0 12.906667-5.781333 12.906667-12.906667v-40.96z"  horiz-adv-x="1024" />

    
    <glyph glyph-name="souyisouicon" unicode="&#58883;" d="M933.354667 512.106667v-84.522667H512v42.133333zM725.504 10.261333L670.762667-42.666667l-210.666667 364.906667 36.48 21.056zM108.224 0.277333l76.074667-31.616 204.117333 353.578667-36.48 21.056zM90.645333 427.584v84.522667L343.466667 469.717333v-42.133333zM468.288 810.666667l82.368-16.362667-85.781333-238.741333-40.704 10.901333z"  horiz-adv-x="1024" />

    
    <glyph glyph-name="erweima" unicode="&#58956;" d="M128 512h256V768H128v-256z m-85.333333-85.333333V853.333333h426.666666v-426.666666H42.666667z m85.333333-426.666667h256v256H128v-256z m-85.333333-85.333333V341.333333h426.666666v-426.666666H42.666667zM640 512h256V768h-256v-256z m-85.333333-85.333333V853.333333h426.666666v-426.666666H554.666667z m256-256h85.333333v170.666666h85.333333v-256h-256v170.666667h-85.333333v-341.333333h-85.333333V341.333333h256v-170.666666zM213.333333 597.333333V682.666667h85.333334v-85.333334H213.333333z m0-512v85.333334h85.333334v-85.333334H213.333333zM725.333333 597.333333V682.666667h85.333334v-85.333334h-85.333334z m170.666667-682.666666v85.333333h85.333333v-85.333333h-85.333333z m-170.666667 0v85.333333h85.333334v-85.333333h-85.333334z"  horiz-adv-x="1024" />

    
    <glyph glyph-name="gouwu" unicode="&#58913;" d="M864 608H704v32a192 192 0 0 1-384 0v-32H160a32 32 0 0 1-32-32v-608a32 32 0 0 1 32-32h704a32 32 0 0 1 32 32V576a32 32 0 0 1-32 32z m-480 32a128 128 0 0 0 256 0v-32H384z m448-640H192V544h128v-96h64v96h256v-96h64v96h128z"  horiz-adv-x="1024" />

    
    <glyph glyph-name="hongbao2" unicode="&#59310;" d="M802.454187-128H217.311573c-80.785067 0-146.285227 65.50016-146.285226 146.285227V730.714453c78.71488-89.856 184.142507-155.5712 304.07168-184.285866 22.213973-52.4288 74.2144-89.284267 134.785706-89.284267s112.571733 36.857173 134.785707 89.284267c119.929173 28.714667 225.358507 94.429867 304.07168 184.285866v-712.429226c-0.001707-80.785067-65.501867-146.285227-146.286933-146.285227z m-148.498774 753.21344c-10.571093 70.357333-70.785707 124.499627-144.07168 124.499627s-133.500587-54.142293-144.141653-124.499627C253.525333 658.85696 157.597013 729.857707 92.025173 824.142507 117.526187 867.00032 163.810987 896 217.311573 896h585.142614c53.500587 0 99.785387-28.99968 125.284693-71.857493-65.570133-94.2848-161.570133-165.285547-273.783467-198.929067z"  horiz-adv-x="1024" />

    
    <glyph glyph-name="zhifu" unicode="&#58886;" d="M111.2-50.3l22.8 58.5c16.6 42.5 30.1 89 31.3 106.8-85.8 70.5-133 163.1-133 261.5 0 208.3 214.8 377.8 478.9 377.8 264.1 0 478.9-169.4 478.9-377.8 0-208.3-214.8-377.8-478.9-377.8-60.6 0-119.6 8.8-175.4 26.1-19.9-2.5-99.8-29.1-165.6-53.4l-59-21.7z m400 748.2c-233 0-422.5-144.1-422.5-321.3 0-83.3 42-162.5 118.5-222.9 10-7.8 27.1-21.4-0.4-108.9 120.1 42 134.1 37.6 142.2 35.1 51.4-16.3 105.9-24.6 162.1-24.6 233 0 422.5 144.1 422.5 321.4 0.1 177.1-189.4 321.2-422.4 321.2z m0 0M892.5 584.3l-441.9-207c-12-6.7-27-5.6-37.8 3L284.5 482.2c-6.2 4.9-14 7.6-22.1 7.3l-30.1-0.8 175-203.7c11.1-12.2 29.4-14.8 43.5-5.9l441.8 281.4v23.8z m0 0"  horiz-adv-x="1024" />

    
    <glyph glyph-name="qiabao1" unicode="&#58888;" d="M911.1 535.1h-40V713.4L161.4 604.1l-6 39.6L911.1 760zM938 21.8L106 134.6V646.8l832-112.7v-512.3zM146 169.6l752-102V499.1L146 601v-431.4z"  horiz-adv-x="1024" />

    
    <glyph glyph-name="xindepengyou" unicode="&#58629;" d="M0 896h1024v-1024H0V896zM568.027429 216.35657100000003c0 20.655543 4.856686 40.170057 13.502171 57.475658a123.757714 123.757714 0 0 1-15.008914 3.584c-13.560686 2.165029-14.101943 40.667429-14.101943 40.667428s40.126171 40.667429 49.342171 95.451429c23.873829 0 38.517029 58.031543 14.6432 78.628571 1.082514 21.7088 30.368914 169.208686-118.769371 169.208686-149.138286 0.541257-119.851886-146.973257-118.769372-168.667429-23.844571-20.597029-9.216-78.628571 14.6432-78.628571 8.689371-54.769371 49.3568-95.451429 49.3568-95.451429s-0.541257-38.5024-14.101942-40.667428C384.292571 270.906514 219.428571 196.60799999999995 219.428571 114.68799999999999h398.218972a128.643657 128.643657 0 0 0-49.634743 101.653943zM697.153829 110.40182900000002c-14.511543 0-28.233143 2.7648-41.194058 8.2944a106.715429 106.715429 0 0 0-33.938285 22.791314 106.773943 106.773943 0 0 0-22.791315 33.938286 103.877486 103.877486 0 0 0-8.2944 41.179428 103.862857 103.862857 0 0 0 8.2944 41.194057 103.760457 103.760457 0 0 0 22.791315 33.674972 108.865829 108.865829 0 0 0 33.938285 22.528 103.862857 103.862857 0 0 0 41.194058 8.309028 103.862857 103.862857 0 0 0 41.194057-8.2944 105.749943 105.749943 0 0 0 33.660343-22.528 105.706057 105.706057 0 0 0 22.542628-33.6896 103.862857 103.862857 0 0 0 8.2944-41.194057 103.862857 103.862857 0 0 0-8.2944-41.179428 108.895086 108.895086 0 0 0-22.528-33.938286 103.570286 103.570286 0 0 0-33.6896-22.791314 103.804343 103.804343 0 0 0-41.179428-8.2944z m52.3264 123.318857h-38.326858V269.45828600000004c0 4.827429-1.565257 8.981943-4.681142 12.434285a15.316114 15.316114 0 0 1-11.907658 5.178515c-4.827429 0-8.630857-1.726171-11.410285-5.178515a19.309714 19.309714 0 0 1-4.139886-12.434285v-35.752229h-33.674971c-4.827429 0-8.967314-1.726171-12.434286-5.178514-3.452343-3.452343-5.178514-7.606857-5.178514-12.434286 0-4.827429 1.726171-8.455314 5.178514-10.883657 3.452343-2.413714 7.606857-3.627886 12.434286-3.627886h33.674971v-36.776228c0-4.827429 1.389714-8.981943 4.154514-12.434286 2.7648-3.452343 6.5536-5.178514 11.395657-5.178514 4.827429 0 8.8064 1.726171 11.922286 5.178514 3.101257 3.452343 4.651886 7.606857 4.651886 12.434286V201.58171400000003h38.341486v-1.024c4.827429 0 8.981943 1.375086 12.434285 4.139886 3.452343 2.7648 5.178514 6.568229 5.178515 11.410286 0 4.827429-1.726171 8.967314-5.178515 12.434285a16.969143 16.969143 0 0 1-12.434285 5.163886z"  horiz-adv-x="1024" />

    
    <glyph glyph-name="yuyinshuru1" unicode="&#58942;" d="M877.282748 612.144463l-215.285262-351.968794c-45.464844-74.340745-168.181424-85.318708-274.021061-24.574915-105.922637 60.743792-154.869469 170.269416-109.403625 244.612161l215.284262 351.968794C539.322906 906.522454 662.039486 917.499416 767.879123 856.756625c105.921637-60.742792 154.909469-170.269416 109.403625-244.612162zM339.88959 143.031071s157.818459-109.812624 358.234772 32.522888c60.497793 61.849788 111.902616 140.942517 111.902616 140.942517l55.991809-32.521888s-106.004637-230.39921-369.416734-249.364145c-66.764771-4.791984-123.084578 21.708926-123.084578 21.708925l-78.397732-108.420628-111.901616 65.002777 67.17377 108.421628S115.061361 208.607846 116.043357 403.208179c0.614998 128.36856 89.538693 260.219108 89.538693 260.219108l55.991808-43.377851s-65.862774-84.909709-78.355731-227.65422C170.68417 249.608706 339.93059 143.031071 339.93059 143.031071zM172.036165-128V-19.579372l100.760655-54.229814L171.995165-128z"  horiz-adv-x="1024" />

    
    <glyph glyph-name="liaotian1" unicode="&#58951;" d="M0 896m102.4 0l819.2 0q102.4 0 102.4-102.4l0-819.2q0-102.4-102.4-102.4l-819.2 0q-102.4 0-102.4 102.4l0 819.2q0 102.4 102.4 102.4ZM512 440.32a168.96 138.24 0 1 1 337.92 0 168.96 138.24 0 1 1-337.92 0ZM739.00032 347.70944a137.74848 137.74848 0 0 0-81.37728 28.3648A140.93312 140.93312 0 0 1 789.6064 281.6a137.59488 137.59488 0 0 1 21.08416 1.792 142.51008 142.51008 0 0 0-71.69024 64.31744zM153.6 378.88a215.04 168.96 0 1 1 430.08 0 215.04 168.96 0 1 1-430.08 0ZM315.33056 261.2736a178.10432 178.10432 0 0 1 103.56736 35.19488 177.27488 177.27488 0 0 0-194.816-115.0464 179.968 179.968 0 0 1 91.24864 79.85152zM256.03072 414.72a30.72 30.72 0 1 0-30.72-30.72 30.72 30.72 0 0 0 30.72 30.72z m225.28 0a30.72 30.72 0 1 0-30.72-30.72 30.72 30.72 0 0 0 30.72 30.72z m-112.64 0a30.72 30.72 0 1 0-30.72-30.72 30.72 30.72 0 0 0 30.72 30.72zM606.75072 465.92a25.74336 25.74336 0 1 0-23.04-25.6 24.41216 24.41216 0 0 0 23.04 25.6z m168.96 0a25.74336 25.74336 0 1 0-23.04-25.6 24.41216 24.41216 0 0 0 23.04 25.6z m-84.48 0a25.74336 25.74336 0 1 0-23.04-25.6 24.41216 24.41216 0 0 0 23.04 25.6z"  horiz-adv-x="1024" />

    
    <glyph glyph-name="qunliao1" unicode="&#58925;" d="M870.4-128H153.6a153.6 153.6 0 0 0-153.6 153.6V742.4a153.6 153.6 0 0 0 153.6 153.6h716.8a153.6 153.6 0 0 0 153.6-153.6v-716.8a153.6 153.6 0 0 0-153.6-153.6M779.008 298.3168a7366.9888 7366.9888 0 0 1-106.88 75.6224c-0.9728 1.6384-3.2768 8.8064-1.6384 23.1424 0.3072 3.2512 3.2512 6.8352 8.1408 13.056 6.528 7.808 14.976 18.8672 20.5312 35.1744 5.2224 16.64 18.8928 88.064-14.976 135.2704-11.6224 16.0768-33.4592 34.944-72.0896 38.144 42.6496-67.84 28.1344-160.1024 18.432-191.0528-8.704-25.6512-21.5808-43.008-31.8464-55.296-1.3568-1.7664-2.56-3.1744-3.4816-4.4032l-0.0768-2.048c28.032-19.456 87.8336-61.8496 124.288-88.1664a99.7632 99.7632 0 0 0 42.0608-81.408v-7.68c23.424 5.9392 40.9088 27.136 40.3456 52.2752v13.3632c0 17.6128-8.448 33.8944-22.784 44.032M662.0672 111.2064H290.3808a68.352 68.352 0 0 0-68.2496 68.2496v16.8704c0 22.1952 10.7008 42.752 28.8 55.5008 43.1616 30.4384 117.1712 83.0464 134.8608 95.3856 1.2032 2.048 4.096 11.0848 2.048 29.184-0.4352 3.712-4.096 8.6272-10.2912 16.4608-7.808 10.24-18.9184 23.808-25.856 44.3904-7.0144 20.9664-24.2944 111.0016 18.8672 170.624 16.0512 22.2208 47.2832 48.896 105.2672 48.896 57.9584 0 89.1904-26.6752 105.2416-48.896 42.752-59.648 25.4976-149.6576 18.944-170.624-7.0144-20.5568-17.7152-34.56-25.9328-44.3904-6.144-7.8336-9.856-12.3392-10.24-16.4608-2.0992-18.0992 0.768-27.136 2.048-29.184 17.664-11.9296 92.0576-64.5632 134.8096-95.3856a67.6608 67.6608 0 0 0 28.8-55.5008v-16.896c0.8192-37.376-30.0288-68.224-67.4304-68.224"  horiz-adv-x="1024" />

    
    <glyph glyph-name="gouwu1" unicode="&#58640;" d="M677 566V667.457c0 90.916-74.084 164.881-165 164.881-90.915 0-165-73.966-165-164.881V566H87v-607h832V566H677zM382 667.457c0 71.797 58.221 130.169 130 130.169s130-58.373 130-130.169V566H382V667.457zM885-6H122V531h225v-155h35V531h260v-155h35V531h208v-537z"  horiz-adv-x="1024" />

    
    <glyph glyph-name="biaoqian" unicode="&#59103;" d="M955.008 762.144a64 64 0 0 1-56.736 56.704L551.456 856.416a64.096 64.096 0 0 1-52.16-18.368L64.288 403.008a64 64 0 0 1 0-90.496L448.96-72.16a64 64 0 0 1 90.496 0l435.008 435.008a64 64 0 0 1 18.368 52.192l-37.824 347.104z m-460.8-789.056L109.536 357.76l435.008 435.008 346.848-37.536 37.824-347.136-435.008-435.008zM709.856 695.52a112 112 0 1 1 0-224 112 112 0 0 1 0 224z m0-160a48 48 0 1 0 0.032 96.032 48 48 0 0 0-0.032-96.032z"  horiz-adv-x="1024" />

    
    <glyph glyph-name="xiaochengxu" unicode="&#58969;" d="M636.555636 637.579636c80.989091 0 146.897455-60.881455 146.897455-136.285091 0-23.458909-6.702545-46.359273-18.990546-67.025454a145.733818 145.733818 0 0 0-83.781818-63.115636c-9.495273-2.792727-16.756364-3.909818-23.458909-3.909819a27.648 27.648 0 0 0-27.927273 27.927273c0 15.639273 12.288 27.927273 27.927273 27.927273 1.117091 0 3.351273 0 6.144 1.117091 24.017455 6.702545 43.008 20.666182 53.620364 39.098182 7.261091 11.729455 10.612364 24.576 10.612363 37.98109 0 44.125091-40.773818 80.430545-90.484363 80.430546-17.314909 0-34.071273-4.468364-49.152-12.846546-26.251636-15.080727-41.890909-40.215273-41.890909-67.584v-234.030545c0-47.476364-26.251636-91.042909-69.818182-115.618909a153.6 153.6 0 0 0-76.520727-20.107636c-80.989091 0-146.897455 60.881455-146.897455 136.28509 0 23.458909 6.702545 46.359273 18.990546 67.025455a145.733818 145.733818 0 0 0 83.781818 63.115636c10.053818 2.792727 16.756364 3.909818 23.458909 3.909819 15.639273 0 27.927273-12.288 27.927273-27.927273 0-15.639273-12.288-27.927273-27.927273-27.927273-1.117091 0-3.351273 0-6.144-1.117091-24.017455-7.261091-43.008-21.224727-53.620364-39.098182a71.028364 71.028364 0 0 1-10.612363-37.981091c0-44.125091 40.773818-80.430545 91.042909-80.430545 17.314909 0 34.071273 4.468364 49.152 12.846545 26.251636 15.080727 41.890909 40.215273 41.890909 67.584V501.294545c0 47.476364 26.251636 91.042909 69.818182 115.61891a145.221818 145.221818 0 0 0 75.962181 20.666181z m-568.040727-251.345454c0-246.877091 199.959273-446.836364 446.836364-446.836364 246.877091 0 446.836364 199.959273 446.836363 446.836364 0 246.877091-199.959273 446.836364-446.836363 446.836363a446.696727 446.696727 0 0 1-446.836364-446.836363z m-55.854545 0c0 277.597091 225.093818 502.690909 502.690909 502.690909s502.690909-225.093818 502.690909-502.690909-225.093818-502.690909-502.690909-502.690909-502.690909 225.093818-502.690909 502.690909z"  horiz-adv-x="1024" />

    
    <glyph glyph-name="shipin" unicode="&#58922;" d="M43.946667 841.557333h1104.554666v-928.938666H43.946667V841.557333zM1239.04 544.682667l351.829333 250.112v-842.837334l-351.829333 255.829334V544.682667z"  horiz-adv-x="1621" />

    
    <glyph glyph-name="yonghu" unicode="&#58890;" d="M657.16679111 315.76063999999997c57.62389333 67.72508445 118.37895111 159.21152 118.37895111 257.24131555 0 177.14289778-117.88288 321.1264-262.87217777 321.1264-144.84821333 0-263.01553778-143.98350222-263.01553778-321.1264 0-98.03093333 37.13706667-163.76035555 111.33724444-255.5335111C483.36213333 136.84280889000001 83.25461333 123.61272888999997 22.784-5.222399999999993c-17.92682667-38.27143111-21.06026667-67.94012445-20.77809778-102.15424 0-4.41344-0.42097778-8.96341333 1.78289778-12.59064889 2.20387555-3.56124445 5.61948445-5.76512 9.32181333-5.76512h997.70368c3.55783111 0 7.04284445 2.20501333 9.17617778 5.76512 2.20387555 3.62723555 1.77834667 8.10780445 1.77834667 12.59064889 0.71566222 38.27143111-4.41002667 72.56291555-14.44181333 93.54922667-64.23893333 134.66396445-526.17102222 124.56391111-350.16021334 329.58805333z"  horiz-adv-x="1025" />

    
    <glyph glyph-name="shenglvehao" unicode="&#58664;" d="M180.90666667 292.97777778c-50.27043555 0-91.02222222 40.75178667-91.02222222 91.02222222s40.75178667 91.02222222 91.02222222 91.02222222 91.02222222-40.75178667 91.02222222-91.02222222-40.75178667-91.02222222-91.02222222-91.02222222z m331.09333333 0c-50.27043555 0-91.02222222 40.75178667-91.02222222 91.02222222s40.75178667 91.02222222 91.02222222 91.02222222 91.02222222-40.75178667 91.02222222-91.02222222-40.75178667-91.02222222-91.02222222-91.02222222z m331.09333333 0c-50.27043555 0-91.02222222 40.75178667-91.02222222 91.02222222s40.75178667 91.02222222 91.02222222 91.02222222 91.02222222-40.75178667 91.02222222-91.02222222-40.75178667-91.02222222-91.02222222-91.02222222z"  horiz-adv-x="1024" />

    
    <glyph glyph-name="xiaochengxu1" unicode="&#58908;" d="M512-21.333333a405.333333 405.333333 0 1 1 0 810.666666 405.333333 405.333333 0 0 1 0-810.666666z m0 42.666666a362.666667 362.666667 0 1 0 0 725.333334 362.666667 362.666667 0 0 0 0-725.333334zM619.008 553.984c58.624 0 106.325333-41.088 106.325333-91.904 0-15.786667-4.906667-31.232-13.738666-45.141333-13.354667-20.352-34.730667-35.413333-60.586667-42.581334a63.573333 63.573333 0 0 0-16.981333-2.645333 20.394667 20.394667 0 0 0-14.250667 5.418667 18.304 18.304 0 0 0-5.888 13.397333c0 10.581333 8.874667 18.773333 20.138667 18.773333 0.810667 0 2.474667 0 4.48 0.768 17.365333 4.565333 31.104 13.909333 38.784 26.410667 5.248 7.850667 7.68 16.597333 7.68 25.6 0 29.824-29.525333 54.229333-65.536 54.229333-12.373333 0-24.618667-2.986667-35.498667-8.661333-19.072-10.112-30.336-27.050667-30.336-45.568v-157.824c0-32-19.029333-61.397333-50.56-77.994667a117.632 117.632 0 0 0-55.381333-13.610666C389.034667 212.650667 341.333333 253.781333 341.333333 304.64c0 15.786667 4.906667 31.232 13.738667 45.184 13.354667 20.309333 34.773333 35.413333 60.586667 42.538667 7.253333 1.877333 12.16 2.602667 16.981333 2.602666 11.349333 0 20.181333-8.277333 20.181333-18.773333 0-5.034667-2.133333-9.898667-5.930666-13.44a20.394667 20.394667 0 0 0-14.250667-5.376c-0.810667 0-2.474667 0-4.437333-0.725333-17.408-4.906667-31.146667-14.336-38.826667-26.368-5.248-7.936-7.68-16.64-7.68-25.685334 0-29.781333 29.525333-54.186667 65.877333-54.186666 12.416 0 24.661333 2.986667 35.541334 8.618666 19.029333 10.197333 30.293333 27.093333 30.293333 45.568v157.44c0 32 19.029333 61.397333 50.602667 77.994667 16.64 9.344 35.669333 14.165333 55.04 13.994667z"  horiz-adv-x="1024" />

    
    <glyph glyph-name="liaotian2" unicode="&#58884;" d="M204.8 896h614.4Q1024 896 1024 691.2v-614.4q0-204.8-204.8-204.8H204.8Q0-128 0 76.8V691.2Q0 896 204.8 896zM819.2 896H534.272A756.48 756.48 0 0 1 0 412.416V76.8A204.8 204.8 0 0 1 204.8-128h614.4A204.8 204.8 0 0 1 1024 76.8V691.2A204.8 204.8 0 0 1 819.2 896zM819.2 896h-3.84a755.2 755.2 0 0 1-539.392-1024H819.2A204.8 204.8 0 0 1 1024 76.8V691.2A204.8 204.8 0 0 1 819.2 896zM497.152 174.848A752.384 752.384 0 0 1 560.384-128H819.2A204.8 204.8 0 0 1 1024 76.8V691.2a204.8 204.8 0 0 1-89.088 168.96 755.2 755.2 0 0 1-437.76-685.312zM512 691.2a307.2 307.2 0 0 1-204.8-535.808V102.4a25.6 25.6 0 0 1 25.6-25.6H512a307.2 307.2 0 0 1 0 614.4zM742.4 384a307.2 307.2 0 0 1-268.8 304.64 307.2 307.2 0 0 1-166.4-533.248V102.4a25.6 25.6 0 0 1 25.6-25.6h102.4A307.2 307.2 0 0 1 742.4 384zM512 422.4q25.6 0 25.6-25.6v-25.6q0-25.6-25.6-25.6t-25.6 25.6v25.6q0 25.6 25.6 25.6zM409.6 422.4q25.6 0 25.6-25.6v-25.6q0-25.6-25.6-25.6T384 371.2v25.6q0 25.6 25.6 25.6zM614.4 422.4q25.6 0 25.6-25.6v-25.6q0-25.6-25.6-25.6t-25.6 25.6v25.6q0 25.6 25.6 25.6z"  horiz-adv-x="1024" />

    
    <glyph glyph-name="zhifu1" unicode="&#58899;" d="M562.479 888.645c188.445 0 355.27-78.647 457.338-199.363 3.635-4.298-143.706-71.29-318.954-150.283-91.713-41.32-190.565-90.285-274.057-114.702-35.162-11.438-145.884 136.047-171.253 92.88-16.124-10.888 11.293-58.987 36.878-113.505 33.388-71.146 70.325-151.076 71.132-152.215 4.197-3.808 16.716-12.36 40.585-6.433 113.275 56.695 653.702 392.841 659.153 383.827 39.417-65.19 61.657-139.134 61.657-217.448 0-263.586-251.832-477.27-562.48-477.27-67.511 0-132.225 10.095-192.194 28.585-33.72 11.394-155.446-94.511-180.599-82.742-8.653 4.038-13.326 11.725-10.543 20.624 44.148 153.254 42.431 126.5-7.759 167.777C65.695 155.157 0 276.754 0 411.403 0 674.975 251.817 888.645 562.479 888.645"  horiz-adv-x="1124" />

    
    <glyph glyph-name="biaoqing1" unicode="&#58885;" d="M512-107.101091c-269.917091 0-488.727273 218.763636-488.727273 488.727273C23.272727 651.543273 242.082909 870.353455 512 870.353455s488.727273-218.810182 488.727273-488.727273c0-269.963636-218.810182-488.727273-488.727273-488.727273z m0 46.545455a442.181818 442.181818 0 1 1 0 884.363636 442.181818 442.181818 0 0 1 0-884.363636zM302.545455 497.989818m-69.818182 0a69.818182 69.818182 0 1 1 139.636363 0 69.818182 69.818182 0 1 1-139.636363 0ZM512 32.535273a256 256 0 0 0-256 256v23.272727h512v-23.272727a256 256 0 0 0-256-256z m0 46.545454a209.454545 209.454545 0 0 1 208.197818 186.181818H303.802182a209.454545 209.454545 0 0 1 208.197818-186.181818zM721.454545 497.989818m-69.818181 0a69.818182 69.818182 0 1 1 139.636363 0 69.818182 69.818182 0 1 1-139.636363 0Z"  horiz-adv-x="1024" />

    
    <glyph glyph-name="youxi1" unicode="&#58635;" d="M623.42863888 486.64757767c19.37889396-21.19566487 27.25156912-43.60251095 27.25156913-43.60251094 5.45031394-15.74535092 23.31523154-28.76554549 39.96896792-28.76554548h99.61962556c16.65373699 0 28.76554549 2.42236181 26.94877396 5.14751879s-17.25932729 19.0760982-29.06834063 30.88511154L578.31215158 660.14923482c-11.80901334 11.80901334-23.6180267 23.31523154-26.04038791 25.43479822s-9.99224183-6.66149454-9.99224243-23.31523155v-99.61962556c0-16.65373699 12.71739881-34.82144972 28.46275033-40.57455822 0 0 30.27952125-11.20342304 52.68636732-35.42704004zM235.85076518 450.31215158c-11.80901334-11.80901334-23.31523154-23.6180267-25.43479822-26.04038791s6.66149454-9.99224183 23.31523155-9.99224243h99.61962556c16.65373699 0 34.82144972 12.71739881 40.57455822 28.46275033 0 0 10.90062788 30.27952125 35.42704004 52.68636732 21.19566487 19.37889396 43.60251095 27.25156912 43.60251094 27.25156912 15.74535092 5.45031394 28.76554549 23.31523154 28.76554548 39.96896792V662.26880149c0 16.65373699-2.42236181 28.76554549-5.14751879 26.94877396S457.19406661 671.9582481699999 445.68784842 660.14923482L235.85076518 450.31215158zM614.34478252 272.57136112c-21.19566487-19.37889396-43.60251095-27.25156912-43.60251094-27.25156913-15.74535092-5.45031394-28.76554549-23.31523154-28.7655455-39.96896792v-99.61962556c0-16.65373699 2.42236181-28.76554549 5.1475188-26.94877396s19.0760982 17.25932729 30.88511155 29.06834063l209.83708323 209.83708324c11.80901334 11.80901334 23.31523154 23.6180267 25.43479821 26.04038791 2.11956666 2.72515698-6.66149454 9.99224183-23.31523154 9.99224243h-99.61962554c-16.65373699 0-34.82144972-12.71739881-40.57455883-28.46275033 0 0-10.90062788-30.27952125-35.42703944-52.68636731zM400.57136112 281.65521748000003c-19.37889396 21.19566487-27.25156912 43.60251095-27.25156913 43.60251094-5.45031394 15.74535092-23.31523154 28.76554549-39.96896792 28.7655455H233.73119851c-16.65373699 0-28.76554549-2.42236181-26.94877396-5.1475188s17.25932729-19.0760982 29.06834063-30.88511155L445.68784842 107.85076518000005c11.80901334-11.80901334 23.6180267-23.31523154 26.04038791-25.43479822 2.72515698-2.11956666 9.99224183 6.66149454 9.99224243 23.31523155v99.61962556c0 16.65373699-12.71739881 34.82144972-28.46275033 40.57455822 0 0.30279516-30.27952125 11.20342304-52.68636732 35.72983519z"  horiz-adv-x="1024" />

    
    <glyph glyph-name="jiahao2" unicode="&#58891;" d="M512 896C226.743 896 0 669.257 0 384s226.743-512 512-512 512 226.743 512 512S797.257 896 512 896z m0-950.857C270.629-54.857 73.143 142.629 73.143 384S270.629 822.857 512 822.857 950.857 625.371 950.857 384 753.371-54.857 512-54.857zM731.429 420.571H548.57V603.43C548.571 625.37 533.943 640 512 640s-36.571-14.629-36.571-36.571V420.57H292.57C270.63 420.571 256 405.943 256 384s14.629-36.571 36.571-36.571H475.43V164.57C475.429 142.63 490.057 128 512 128s36.571 14.629 36.571 36.571V347.43H731.43C753.37 347.429 768 362.057 768 384s-14.629 36.571-36.571 36.571z"  horiz-adv-x="1024" />

    
    <glyph glyph-name="xiangji" unicode="&#58943;" d="M1003.008 702.976h-182.784l-46.08 77.312c-15.872 19.456-25.088 29.184-47.616 29.184H463.36c-22.528 0-26.624-12.288-43.52-29.184l-46.08-77.312H189.44c-55.296 0-88.064-44.032-88.064-97.792V56.32c0-53.76 45.056-97.792 100.352-97.792h788.992c55.296 0 100.352 44.032 100.352 97.792V605.696c-0.512 53.76-33.28 97.28-88.064 97.28z m-407.04-638.976c-154.624 0-280.576 125.44-280.576 280.576 0 154.624 125.44 280.576 280.576 280.576 154.624 0 280.576-125.44 280.576-280.576-0.512-155.136-125.952-280.576-280.576-280.576zM595.968 344.064m-191.488 0a191.488 191.488 0 1 1 382.976 0 191.488 191.488 0 1 1-382.976 0Z"  horiz-adv-x="1223" />

    
    <glyph glyph-name="xiangce2" unicode="&#58893;" d="M832.83968 692.11648H191.16032c-47.92832 0-86.78912-38.8608-86.78912-86.78912v-442.64448c0-47.93344 38.8608-86.79424 86.78912-86.79424h641.67936c47.92832 0 86.78912 38.8608 86.78912 86.79424V605.32736c0 47.92832-38.8608 86.78912-86.78912 86.78912zM168.576 627.90656h686.85312v-282.38336l-45.83936 47.04768c-31.68768 32.53248-83.72224 33.21856-116.27008 1.52576l-58.1888-56.6784 51.1488-83.0976L446.83776 486.3488c-31.69792 32.53248-83.73248 33.21856-116.28032 1.52064l-161.98144-157.824V627.90656z"  horiz-adv-x="1024" />

    
    <glyph glyph-name="shezhi" unicode="&#58896;" d="M891.392 384c0 39.762 24.146 74.721 61.507 89.062l19.128 7.342-5.059 19.85a466.831 466.831 0 0 1-50.995 123.219l-10.455 17.612-18.714-8.32a95.933 95.933 0 0 0-39.219-8.325 94.326 94.326 0 0 0-67.24 27.904c-28.12 28.12-35.769 69.899-19.482 106.435l8.356 18.75-17.664 10.454a469.356 469.356 0 0 1-123.29 50.985l-19.814 5.049-7.363-19.077c-14.433-37.392-49.403-61.553-89.078-61.553-39.757 0-74.716 24.146-89.062 61.517l-7.342 19.118-19.85-5.054a466.586 466.586 0 0 1-123.218-51l-17.613-10.455 8.32-18.714c16.266-36.567 8.617-78.356-19.477-106.455-17.945-17.95-41.866-27.837-67.348-27.837-13.589 0-26.757 2.78-39.132 8.269l-18.668 8.279-10.46-17.547a464.138 464.138 0 0 1-51.113-123.253l-5.043-19.815 19.077-7.362c37.376-14.434 61.532-49.398 61.532-89.078 0-39.757-24.146-74.716-61.517-89.068l-19.123-7.347 5.054-19.85a466.995 466.995 0 0 1 50.995-123.213l10.455-17.618 18.719 8.33a95.877 95.877 0 0 0 39.214 8.326c25.41 0 49.28-9.902 67.235-27.9 28.125-28.123 35.769-69.903 19.487-106.439l-8.356-18.75 17.664-10.454a469.028 469.028 0 0 1 123.29-50.98l19.814-5.049 7.363 19.078c14.449 37.386 49.413 61.542 89.093 61.542 39.762 0 74.721-24.146 89.068-61.512l7.347-19.123 19.85 5.059a467.174 467.174 0 0 1 123.218 50.99l17.618 10.46-8.33 18.719c-16.267 36.567-8.628 78.351 19.476 106.455 17.946 17.95 41.861 27.837 67.338 27.837 13.589 0 26.763-2.785 39.138-8.269l18.672-8.284 10.455 17.552a464.256 464.256 0 0 1 51.113 123.248l5.049 19.85-19.119 7.348c-37.365 14.34-61.501 49.305-61.501 89.062z m-5.857-199.542a142.013 142.013 0 0 1-37.95 5.115c-37.796 0-73.282-14.679-99.932-41.334-36.66-36.67-49.879-88.975-36.162-137.871a421.565 421.565 0 0 0-76.39-31.61c-24.874 44.287-71.225 71.93-123.101 71.93-51.784 0-98.13-27.648-123.07-71.936a422.543 422.543 0 0 0-76.559 31.662c13.317 48.517-0.066 101.765-36.111 137.805-26.64 26.71-62.096 41.42-99.84 41.42-12.98 0-25.708-1.725-38.037-5.15a421.023 421.023 0 0 0-31.626 76.41c44.288 24.874 71.936 71.225 71.936 123.101 0 51.789-27.648 98.135-71.936 123.07a417.91 417.91 0 0 0 31.703 76.467c12.293-3.4 24.996-5.115 37.95-5.115 37.79 0 73.282 14.679 99.932 41.334 36.664 36.669 49.889 88.97 36.173 137.87a420.639 420.639 0 0 0 76.385 31.612c24.873-44.288 71.224-71.936 123.095-71.936 51.789 0 98.13 27.643 123.07 71.94a422.932 422.932 0 0 0 76.559-31.666c-13.323-48.512 0.066-101.76 36.106-137.805 26.644-26.711 62.106-41.42 99.845-41.42a141.773 141.773 0 0 1 38.042 5.15 421.345 421.345 0 0 0 31.62-76.411C872.95 482.227 845.313 435.88 845.313 384c0-51.876 27.638-98.227 71.926-123.1a418.627 418.627 0 0 0-31.703-76.442zM512 525.819c-78.198 0-141.819-63.621-141.819-141.819 0-78.203 63.621-141.824 141.819-141.824 78.203 0 141.824 63.621 141.824 141.824 0 78.198-63.621 141.819-141.824 141.819z m0-237.563c-52.792 0-95.739 42.952-95.739 95.744s42.952 95.739 95.739 95.739c52.797 0 95.744-42.952 95.744-95.739 0-52.797-42.947-95.744-95.744-95.744z"  horiz-adv-x="1024" />

    
    <glyph glyph-name="xiangce-" unicode="&#58963;" d="M319.173 396.642l-132.32-134.999c-12.37-12.621-32.631-12.824-45.253-0.453-12.62 12.37-12.824 32.631-0.453 45.252L285.942 454.17c18.17 18.538 47.927 18.836 66.465 0.666a47 47 0 0 0 1.547-1.59l307.11-330.851c12.023-12.953 11.269-33.2-1.684-45.224-12.953-12.023-33.2-11.27-45.223 1.683L319.173 396.642zM613.505 249.467c-12.565-12.43-32.826-12.32-45.255 0.245-12.428 12.564-12.319 32.825 0.245 45.254l102.127 101.027c18.454 18.255 48.212 18.094 66.467-0.36 0.214-0.216 0.427-0.435 0.637-0.656L885.287 239.89c12.183-12.804 11.679-33.059-1.125-45.241-12.803-12.182-33.058-11.679-45.24 1.125l-135.614 142.53-89.803-88.836zM129 768h768c35.346 0 64-28.654 64-64v-640c0-35.346-28.654-64-64-64H129c-35.346 0-64 28.654-64 64V704c0 35.346 28.654 64 64 64z m-1-64v-640h768V704H128z"  horiz-adv-x="1024" />

    
    <glyph glyph-name="weizhi" unicode="&#58985;" d="M839.6 615.5c-18 42.5-43.7 80.6-76.4 113.4-32.7 32.7-70.9 58.5-113.4 76.4-44 18.6-90.7 28-138.8 28s-94.8-9.4-138.8-28c-42.5-18-80.6-43.7-113.4-76.4-32.7-32.7-58.5-70.9-76.4-113.4-18.6-44-28-90.7-28-138.8 0-47.7 17.7-101.7 54.2-165.3 27.1-47.3 64.7-99.4 111.6-155 79-93.5 156.7-164.1 160-167l26.9-24.4 27.2 24.1c3.3 3 82.9 73.5 163.6 167 48 55.5 86.4 107.7 114.1 155 37.4 63.6 55.5 117.8 55.5 165.6 0.1 48-9.3 94.8-27.9 138.8zM637 209.8c-49.5-57.4-99.6-106.6-129.3-134.8-29 28-77.4 76.8-125.5 133.8-94.6 111.9-146.6 207.1-146.6 267.8C235.6 628.5 359.1 752 511 752s275.4-123.5 275.4-275.4c0-60.4-53.1-155.2-149.4-266.8zM511 649.9c-84.9 0-153.9-69-153.9-153.9s69-153.9 153.9-153.9 153.9 69 153.9 153.9S595.8 649.9 511 649.9z m0-226.6c-40.1 0-72.7 32.6-72.7 72.7s32.6 72.7 72.7 72.7 72.7-32.6 72.7-72.7c-0.1-40.1-32.7-72.7-72.7-72.7z"  horiz-adv-x="1024" />

    
    <glyph glyph-name="shezhi1" unicode="&#58902;" d="M891.392 384c0 39.762 24.146 74.721 61.507 89.062l19.128 7.342-5.059 19.85a466.831 466.831 0 0 1-50.995 123.219l-10.455 17.612-18.714-8.32a95.933 95.933 0 0 0-39.219-8.325 94.326 94.326 0 0 0-67.24 27.904c-28.12 28.12-35.769 69.899-19.482 106.435l8.356 18.75-17.664 10.454a469.356 469.356 0 0 1-123.29 50.985l-19.814 5.049-7.363-19.077c-14.433-37.392-49.403-61.553-89.078-61.553-39.757 0-74.716 24.146-89.062 61.517l-7.342 19.118-19.85-5.054a466.586 466.586 0 0 1-123.218-51l-17.613-10.455 8.32-18.714c16.266-36.567 8.617-78.356-19.477-106.455-17.945-17.95-41.866-27.837-67.348-27.837-13.589 0-26.757 2.78-39.132 8.269l-18.668 8.279-10.46-17.547a464.138 464.138 0 0 1-51.113-123.253l-5.043-19.815 19.077-7.362c37.376-14.434 61.532-49.398 61.532-89.078 0-39.757-24.146-74.716-61.517-89.068l-19.123-7.347 5.054-19.85a466.995 466.995 0 0 1 50.995-123.213l10.455-17.618 18.719 8.33a95.877 95.877 0 0 0 39.214 8.326c25.41 0 49.28-9.902 67.235-27.9 28.125-28.123 35.769-69.903 19.487-106.439l-8.356-18.75 17.664-10.454a469.028 469.028 0 0 1 123.29-50.98l19.814-5.049 7.363 19.078c14.449 37.386 49.413 61.542 89.093 61.542 39.762 0 74.721-24.146 89.068-61.512l7.347-19.123 19.85 5.059a467.174 467.174 0 0 1 123.218 50.99l17.618 10.46-8.33 18.719c-16.267 36.567-8.628 78.351 19.476 106.455 17.946 17.95 41.861 27.837 67.338 27.837 13.589 0 26.763-2.785 39.138-8.269l18.672-8.284 10.455 17.552a464.256 464.256 0 0 1 51.113 123.248l5.049 19.85-19.119 7.348c-37.365 14.34-61.501 49.305-61.501 89.062z m-5.857-199.542a142.013 142.013 0 0 1-37.95 5.115c-37.796 0-73.282-14.679-99.932-41.334-36.66-36.67-49.879-88.975-36.162-137.871a421.565 421.565 0 0 0-76.39-31.61c-24.874 44.287-71.225 71.93-123.101 71.93-51.784 0-98.13-27.648-123.07-71.936a422.543 422.543 0 0 0-76.559 31.662c13.317 48.517-0.066 101.765-36.111 137.805-26.64 26.71-62.096 41.42-99.84 41.42-12.98 0-25.708-1.725-38.037-5.15a421.023 421.023 0 0 0-31.626 76.41c44.288 24.874 71.936 71.225 71.936 123.101 0 51.789-27.648 98.135-71.936 123.07a417.91 417.91 0 0 0 31.703 76.467c12.293-3.4 24.996-5.115 37.95-5.115 37.79 0 73.282 14.679 99.932 41.334 36.664 36.669 49.889 88.97 36.173 137.87a420.639 420.639 0 0 0 76.385 31.612c24.873-44.288 71.224-71.936 123.095-71.936 51.789 0 98.13 27.643 123.07 71.94a422.932 422.932 0 0 0 76.559-31.666c-13.323-48.512 0.066-101.76 36.106-137.805 26.644-26.711 62.106-41.42 99.845-41.42a141.773 141.773 0 0 1 38.042 5.15 421.345 421.345 0 0 0 31.62-76.411c-44.287-24.863-71.924-71.21-71.924-123.09 0-51.876 27.638-98.227 71.926-123.1a418.627 418.627 0 0 0-31.703-76.442zM512 525.819c-78.198 0-141.819-63.621-141.819-141.819 0-78.203 63.621-141.824 141.819-141.824 78.203 0 141.824 63.621 141.824 141.824 0 78.198-63.621 141.819-141.824 141.819z m0-237.563c-52.792 0-95.739 42.952-95.739 95.744s42.952 95.739 95.739 95.739c52.797 0 95.744-42.952 95.744-95.739 0-52.797-42.947-95.744-95.744-95.744z"  horiz-adv-x="1024" />

    
    <glyph glyph-name="jiahao3" unicode="&#58934;" d="M512-85.333c259.2 0 469.333 210.133 469.333 469.333S771.2 853.333 512 853.333 42.667 643.2 42.667 384 252.8-85.333 512-85.333z m0 42.666C276.352-42.667 85.333 148.352 85.333 384S276.352 810.667 512 810.667 938.667 619.648 938.667 384 747.648-42.667 512-42.667zM298.667 362.667h426.666a21.333 21.333 0 1 1 0 42.666H298.667a21.333 21.333 0 0 1 0-42.666zM490.667 597.333v-426.666a21.333 21.333 0 1 1 42.666 0V597.333a21.333 21.333 0 1 1-42.666 0z"  horiz-adv-x="1024" />

    
    <glyph glyph-name="wenjian" unicode="&#58904;" d="M1012.1 638.3c-6.3 8.5-14.9 13.3-23.9 13.3H448l-92.8 91.7c-6.3 6.3-14.9 9.8-23.8 9.8H40.8C22.2 753.1 7 737.9 7 719.3v-676.7c0-9 3.6-17.6 9.9-23.9 6.3-6.3 14.9-9.9 23.9-9.9h947.3c9 0 17.6 3.6 23.9 9.9 6.3 6.3 9.9 14.9 9.9 23.9V606.3c0.1 12-3.5 23.5-9.8 32z m-25.8-136.1H42.7v17.6c0 15.9 12.9 28.8 28.8 28.8h886.1c15.9 0 28.8-12.9 28.8-28.8v-17.6z"  horiz-adv-x="1024" />

    
    <glyph glyph-name="sousuo" unicode="&#58786;" d="M481.834667 815.274667a391.466667 391.466667 0 0 0 295.594666-648.106667l156.202667-153.6-59.818667-60.842667-159.104 156.416a391.466667 391.466667 0 1 0-232.874666 706.133334z m0-85.333334a306.133333 306.133333 0 1 1 0-612.266666 306.133333 306.133333 0 0 1 0 612.266666z"  horiz-adv-x="1024" />

    
    <glyph glyph-name="dianhua" unicode="&#58905;" d="M768.111-64.552c-54.207 0-110.731 17.817-141.181 27.446-59.086 18.882-198.89 111.42-321.69 228.217C164.684 324.726 99.782 490.608 78.336 555.762c-27.7 84.534-13.07 123.175-2.314 151.438l2.626 6.876c14.135 39.14 41.014 66.59 95.79 98.04 22.947 13.254 43.515 19.694 62.837 19.694 24.695 0 40.576-10.44 50.081-16.756 20.882-11.504 87.907-68.34 112.922-127.865 33.138-79.471-1.002-120.301-12.257-130.927-5.314-5.004-10.128-9.877-14.634-14.505-10.251-10.443-19.507-19.636-29.51-26.699-1.247-1.19-3.06-4.94-1.75-22.323 5.623-16.754 73.15-94.726 106.106-128.053C581.16 228.755 613.862 218.252 617.172 217.5c20.075-4.565 30.079 0.874 33.392 4.438l4.313 5.126c7.879 9.697 22.633 27.766 39.39 41.77 17.508 14.505 42.893 17.567 61.15 17.567 9.13 0 40.33-0.998 58.024-13.566 2.248-1.56 7.003-4.13 13.131-7.5 26.632-14.824 76.15-42.27 105.164-77.223 42.766-51.397 27.264-127.865 4.941-150.686-2.19-2.313-3.814-4.373-5.816-6.879-7.94-9.878-18.76-23.381-60.401-61.272-24.755-22.45-59.144-33.827-102.349-33.827z m-530.834 836.78c-5.816 0-16.195-2.002-32.953-11.63-52.77-30.389-63.273-49.587-69.527-66.718l-2.874-7.814c-8.815-23.196-17.946-47.207 3.188-111.795 20.008-60.774 80.654-215.776 211.392-340.075 121.55-115.614 253.729-200.27 298.558-214.528 27.26-8.627 78.095-24.7 123.049-24.7 27.824 0 48.708 6.193 62.087 18.322 38.137 34.705 47.643 46.582 53.961 54.4 3.187 3.997 5.937 7.312 9.624 11.125 3.567 6.065 12.758 46.27-8.062 71.284-21.884 26.383-65.03 50.332-88.158 63.147-8.758 4.876-15.323 8.628-18.637 11.002-1.002 0.254-10.442 2.569-23.51 2.569-14.255 0-21.51-2.817-23.008-3.817-12.129-10.128-24.51-25.383-31.135-33.513l-6.194-7.253c-21.818-23.886-52.83-31.51-91.222-22.823-13.507 3.064-49.27 11.255-195.326 160.566-7.754 7.944-122.803 124.739-125.988 168.32-2.13 27.95-0.315 56.462 26.947 75.47 7.128 5.004 13.628 12.004 21.134 19.63 5.063 5.129 10.377 10.507 16.255 16.13 8.38 7.88 12.88 29.512-1.75 64.78-17.759 42.39-71.654 89.785-82.28 95.914-2.503 1.313-5.316 3.125-8.381 5.125-6.874 4.502-10.75 6.881-17.19 6.881z"  horiz-adv-x="1025" />

    
    <glyph glyph-name="dianhua1" unicode="&#58910;" d="M336.17975164 716.4249471l0.37078858-0.58266745c15.9968786-25.84926039 37.87340448-95.71642206 51.69852079-150.59313103l-47.4079676-47.4609375-27.2264749-27.17350572 13.77214643-35.9664917c2.59552002-6.78013413 65.73551744-167.59643555 242.49572754-248.7991333l37.5026159-17.2681533 29.18635828 29.18635757 42.37583654 42.37583727a18.48645881 18.48645881 0 0 0 0.63563808 0.58266745 45.02432718 45.02432718 0 0 0 8.3692275-0.37078858c26.37895867-3.76085565 116.63949118-24.3661061 137.93334961-31.46405891 11.12365723-3.70788575 13.66620734-5.61479852 14.83154297-17.427063 2.64848992-26.27301887-9.69347283-55.19452765-33.74176026-79.29578497-26.06114-25.9552002-54.55889032-38.13825324-89.88974466-38.13825324-18.91021729 0-39.99219611 3.54897605-62.61029914 10.54098904-111.76627055 34.37739761-223.42660056 117.91076661-332.1206227 248.21646586C262.0220368 425.30294644 239.35096387 495.38198696 230.87579656 541.3597701799999c-10.22317038 56.14798441-2.75442971 93.4387207-0.37078857 99.63618665 2.11879165 5.50885871 22.93592169 54.50592041 99.1594583 73.99880588a66.74194336 66.74194336 0 0 0 6.51528535 1.43018439M338.56339207 775.91002867a95.34563347 95.34563347 0 0 1-23.57155906-3.44303696c-91.10804946-23.30671028-129.2463027-82.63288215-139.84026238-110.17717645-15.41421042-40.04516602-25.42550193-194.92885024 101.70200914-347.48186394 127.12751107-152.55301371 250.01743882-233.06710348 360.19461454-266.96777344a272.37069234 272.37069234 0 0 1 80.09033204-13.13650907c62.82217875 0 104.03267965 27.75617318 131.78885354 55.51234633 38.13825324 38.13825324 55.08858786 84.75167379 50.85100457 127.12751106-4.23758401 42.37583726-29.66308594 59.32617188-55.08858858 67.80133918-25.42550193 8.47516731-118.65234375 29.66308594-148.31542969 33.90066996a103.45001221 103.45001221 0 0 1-14.61966338 1.11236572c-20.92306985 0-34.27145853-7.57468118-44.7065085-18.00973116l-42.37583654-42.37583654c-156.790597 72.0389232-211.87918558 216.11676888-211.87918557 216.11676887l50.85100456 50.85100457c12.71275132 12.71275132 16.95033461 33.90066995 12.71275133 50.85100385-4.23758401 16.95033461-31.78187758 125.0087194-59.32617188 169.50334832-14.3018447 22.98889161-32.41751565 28.81556899-48.46736415 28.81556971z"  horiz-adv-x="1024" />

    
    <glyph glyph-name="gongzhonghao1" unicode="&#59237;" d="M472.064 173.056l39.424-39.424 39.936 39.424-39.936 111.104zM894.464 828.416H132.608c-35.328 0-63.488-28.672-63.488-63.488v-761.344c0-35.328 28.672-63.488 63.488-63.488h761.344c35.328 0 63.488 28.672 63.488 63.488V764.928c0.512 34.816-28.16 63.488-62.976 63.488z m-102.4-717.824H231.936c-1.024 6.144-1.024 23.04 0 40.96 4.096 31.744 16.384 54.784 35.84 69.12 13.824 10.24 31.744 15.36 47.104 18.944 7.68 1.024 15.36 3.584 21.504 5.12 38.4 8.704 77.824 17.92 107.008 56.32 2.56 2.56 17.92 25.6-23.04 75.264-17.92 21.504-29.184 51.2-34.304 88.064-5.12 38.4-1.536 74.24 2.56 96.768 5.12 26.624 20.48 51.2 43.52 69.12s51.2 26.624 79.36 26.624 56.32-8.704 79.36-26.624 38.4-41.984 43.52-70.144c4.096-23.04 7.68-58.88 2.56-96.768-5.12-35.84-16.384-65.024-34.304-88.064-40.96-49.664-24.064-72.704-23.04-75.264 29.184-39.424 69.12-48.64 107.008-56.32 7.68-1.024 15.36-3.584 23.04-5.12 13.824-4.096 31.744-8.704 46.08-18.944 40.96-29.696 37.376-93.696 36.352-109.056z"  horiz-adv-x="1024" />

    
    <glyph glyph-name="sousuo1" unicode="&#58906;" d="M446.112323 718.454949c137.567677-0.219798 252.612525-104.59798 266.162424-241.493333 13.562828-136.895354-78.778182-261.818182-213.617777-289.008485-134.852525-27.203232-268.386263 52.156768-308.945455 183.608889s25.018182 272.252121 151.738182 325.779394A267.235556 267.235556 0 0 0 446.112323 718.454949m0 62.060607c-182.794343 0-330.989899-148.195556-330.989899-330.989899s148.195556-330.989899 330.989899-330.989899 330.989899 148.195556 330.989899 330.989899-148.195556 330.989899-330.989899 330.989899z m431.321212-793.341415a30.849293 30.849293 0 0 0-21.94101 9.102223l-157.220202 157.220202c-11.752727 12.179394-11.584646 31.534545 0.37495 43.50707 11.972525 11.972525 31.327677 12.140606 43.494141 0.37495l157.220202-157.220202a31.036768 31.036768 0 0 0 6.723232-33.810101 31.004444 31.004444 0 0 0-28.651313-19.174142z m0 0"  horiz-adv-x="1024" />

    
    <glyph glyph-name="fujinderen" unicode="&#58627;" d="M275.34222222 720.44088889m-108.31644444 0a108.31644445 108.31644445 0 1 1 216.63288889 0 108.31644445 108.31644445 0 1 1-216.63288889 0ZM284.10311111-58.14044445000002h-17.408c-31.97155555 0-58.25422222 26.16888889-58.25422222 58.25422223l-51.2 486.17244444c0 31.97155555 26.16888889 58.25422222 58.25422222 58.25422223h119.92177778c31.97155555 0 58.25422222-26.16888889 58.25422222-58.25422223l-51.2-486.17244444c-0.22755555-32.08533333-26.39644445-58.25422222-58.368-58.25422223zM746.26844445 720.44088889m-108.31644445 0a108.31644445 108.31644445 0 1 1 216.63288889 0 108.31644445 108.31644445 0 1 1-216.63288889 0ZM755.02933333-58.14044445000002h-17.408c-31.97155555 0-58.25422222 26.16888889-58.25422222 58.25422223l-51.2 486.17244444c0 31.97155555 26.16888889 58.25422222 58.25422222 58.25422223h119.92177778c31.97155555 0 58.25422222-26.16888889 58.25422222-58.25422223l-51.2-486.17244444c-0.11377778-32.08533333-26.28266667-58.25422222-58.368-58.25422223z"  horiz-adv-x="1024" />

    
    <glyph glyph-name="kanyikan" unicode="&#58628;" d="M620.8 640L512 774.4 403.2 640l108.8-38.4L620.8 640z m51.2-19.2l19.2-115.2 83.2-76.8 70.4 160-172.8 32z m102.4-268.8l-89.6-64-19.2-121.6 172.8 19.2-64 166.4z m-166.4-217.6l-102.4 44.8-102.4-44.8L512-6.399999999999977l96 140.8z m-256 32l-12.8 115.2-96 76.8-57.6-172.8 166.4-19.2zM236.8 409.6l89.6 76.8 19.2 121.6-166.4-32 57.6-166.4zM512 832c19.2 0 32-6.4 38.4-19.2l108.8-134.4 192-44.8c12.8-6.4 32-12.8 38.4-32 6.4-12.8 6.4-25.6 0-44.8l-70.4-166.4 70.4-185.6c6.4-19.2 6.4-32-6.4-51.2-6.4-12.8-25.6-25.6-38.4-25.6l-192-25.6-102.4-147.2c-6.4-12.8-19.2-19.2-38.4-19.2-12.8 0-32 6.4-44.8 19.2l-115.2 153.6-172.8 19.2c-19.2 0-32 12.8-38.4 25.6-12.8 19.2-12.8 38.4-6.4 51.2L192 377.6 128 563.2c0 12.8 0 32 6.4 44.8 6.4 12.8 19.2 25.6 38.4 25.6l179.2 38.4 121.6 147.2c12.8 6.4 25.6 12.8 38.4 12.8zM403.2 582.4L384 480l-6.4-19.2-12.8-12.8-70.4-64 76.8-57.6 19.2-12.8v-25.6l12.8-96 83.2 38.4 19.2 12.8 19.2-12.8 96-38.4 12.8 102.4 6.4 25.6 19.2 12.8 70.4 57.6-76.8 70.4-12.8 12.8v19.2l-19.2 89.6-89.6-32-19.2-6.4-19.2 6.4-89.6 32z"  horiz-adv-x="1024" />

    
    <glyph glyph-name="shipinhao" unicode="&#58995;" d="M146.511792 896c104.501195 0 247.887792-175.941818 444.761766-532.214026C787.721974 718.994286 930.829299 894.404156 1035.170909 894.404156c24.88187 0 74.166857-24.482909 91.308883-44.75013 42.077091-49.683948 56.492883-133.904623 36.704416-300.816623-40.694026-343.399065-126.430753-605.277091-228.750961-659.881559-81.707221-43.606442-189.54639 80.324156-344.024104 368.187844-154.01226-286.72-261.585455-410.105351-343.159688-366.578701-101.296208 54.059221-186.314805 311.269403-227.514182 649.614961l-1.236779 10.266597C-1.289974 717.358545 13.139117 801.579221 55.18961 851.263169 72.344935 871.53039 121.629922 896 146.511792 896zM1035.170909 841.209351c-76.560623 0-217.580052-175.609351-407.778078-522.160208l-4.907221-8.936727 7.793039-14.695065c69.73839-130.872519 129.555948-226.875844 179.080312-287.690806l3.351273-4.096c47.569455-57.423792 80.59013-76.334545 96.681558-67.743584 78.488935 41.890909 159.172156 284.392727 198.616104 599.811325l2.35387 19.416104c18.219221 153.666494 6.183896 223.95013-24.46961 260.175792-7.367481 8.697351-42.023896 25.90587-50.721247 25.90587zM146.511792 842.805195c-8.697351 0-43.353766-17.208519-50.707948-25.90587C65.615792 781.232208 53.487377 712.584312 70.483117 563.851636l0.837818-7.141402c38.513039-324.834078 120.885195-576.472104 200.983273-619.21413 16.091429-8.590961 49.098805 10.306494 96.66826 67.743584l3.364571 4.096C421.834805 70.150649 481.665662 166.153974 551.404052 297.026494l7.806338 14.681766-4.92052 8.950026C364.118442 667.222442 223.085714 842.805195 146.511792 842.805195z"  horiz-adv-x="1183" />

    
    <glyph glyph-name="souyisou" unicode="&#58907;" d="M799.117 168.332a446.4 446.4 0 0 1 97.559 279.219 51.046 51.046 0 1 1-102.166 0 346.135 346.135 0 1 0-39.345 160.525 51.046 51.046 0 1 1 90.464 47.463 448.3 448.3 0 1 1-118.035-558.73c1.316-1.829 2.925-3.584 4.534-5.193l204.624-204.624a51.046 51.046 0 0 1 72.182 72.182L804.31 163.798a51.558 51.558 0 0 1-5.12 4.534z"  horiz-adv-x="1024" />

    
    <glyph glyph-name="weizhi1" unicode="&#58909;" d="M511.808373 896A371.25985 371.25985 0 0 1 140.963338 525.154965c0-253.763367 331.85238-626.319515 346.007958-642.082503a33.392646 33.392646 0 0 1 49.674153 0c14.103726 15.55558 346.007958 388.319137 346.007958 642.082503A371.25985 371.25985 0 0 1 511.808373 896z m0-557.408294a186.666964 186.666964 0 1 0 186.666963 186.666963 186.666964 186.666964 0 0 0-186.666963-186.666963z"  horiz-adv-x="1024" />

    
    <glyph glyph-name="shipinhao1" unicode="&#58630;" d="M140.71039187 904.12698413c106.15994413 0 251.82251886-178.73454527 451.82147657-540.66186769C792.09851327 724.31165562 937.47738311 902.50580927 1043.47520914 902.50580927c25.27682032 0 75.3441087-24.8715266 92.75823035-45.46044952 42.74498133-50.4725821 57.38959543-136.03009321 37.28702578-305.59149004-41.33996292-348.84984381-128.43759035-614.88466387-232.38192864-670.35586946-83.00416102-44.29860775-192.55506286 81.5991426-349.48480406 374.0320955-156.45689905-291.27111111-265.73760508-416.61495975-348.60666717-372.39741054-102.90408432 54.91730387-189.27218286 316.21018717-231.12551823 659.92630958l-1.25641041 10.42955886C-9.4374339 722.64995048 5.22069029 808.2074626 47.93865143 858.6800447 65.36628317 879.26896762 115.43357156 904.12698413 140.71039187 904.12698413zM1043.47520914 848.46664229c-77.77587098 0-221.03370362-178.39680102-414.2507459-530.44846527l-4.9851134-9.07857981 7.91673803-14.92832c70.84534857-132.94986057 131.61239162-230.47704787 181.92285664-292.25732673l3.40446781-4.16101588c48.32452571-58.33528076 81.86933841-77.54620444 98.2161859-68.81887898 79.73479111 42.55584406 161.69869816 288.90689727 201.76874057 609.33213968l2.39123302 19.72429613c18.50841498 156.1056447 6.28205308 227.50489397-24.85801651 264.30556647-7.48442514 8.83540419-42.69094197 26.31707429-51.52634616 26.31707429zM140.71039187 850.08781714c-8.83540419 0-44.04192102-17.4816701-51.51283606-26.31707428C58.53032838 787.53748114 46.20939886 717.799936 63.47491251 566.70642387l0.8511167-7.25475758c39.12435708-329.99017448 122.80400762-585.62245486 204.17348368-629.04292572 16.34684851-8.72732546 49.87815111 10.47008914 98.20267682 68.81887899l3.41797689 4.16101587C420.40361143 65.16891326999996 481.18416457 162.69610057 552.02951314 295.64596215999995l7.93024813 14.9148099-4.99862349 9.09208991C361.77111568 671.71803632 218.49977295 850.08781714 140.71039187 850.08781714z"  horiz-adv-x="1183" />

    
    <glyph glyph-name="saoyisao1" unicode="&#58631;" d="M761.81869-117.57600000000002c-175.903 0-246.999 109.957-273.818 176.139H362.46869c-3.256 0-6.492 0.337-9.666 1.024l-2.192 0.47c-46.622 9.247-96.512 52.962-94.494 126.741 2.14 75.428 53.35 114.883 102.83 114.883l390.093-0.02-0.031 9.778-0.01 1.117c-0.215 50.032-0.492 112.158 41.492 154.337 22.129 22.272 51.886 34.058 86.057 34.089 72.868 0 113.623-59.976 116.654-119.829l29.696-272.711c1.843-14.756 7.127-83.876-43.653-144.098-44.216-52.439-114.586-79.984-209.152-81.838-2.693-0.071-5.499-0.082-8.274-0.082zM367.80369 151.664h153.55a46.561 46.561 0 0 0 45.004-34.631c14.008-52.859 58.02-141.517 195.471-141.517 2.09 0 4.209 0.02 6.329 0.062 66.703 1.32 113.746 17.725 139.93 48.783 27.32 32.4 22.65 71.004 22.435 72.622-0.051 0.328-0.082 0.655-0.123 0.993l-29.91 274.586a38.359 38.359 0 0 0-0.236 3.256c-0.205 5.356-2.304 32.082-23.675 32.082-11.96-0.01-17.02-3.563-20.091-6.635-14.725-14.797-14.551-55.49-14.398-88.187l0.01-1.116c0.042-8.459 0.083-16.497-0.122-23.982-1.28-54.232-39.107-79.197-73.698-79.401l-409.333 0.02c-5.458-0.41-9.36-9.984-9.77-24.381-0.665-24.198 13.733-30.956 18.627-32.553zM147.50069 267.029h-0.113c-72.816 0-113.561 59.976-116.582 119.829L1.09969 659.558c-1.844 14.756-7.127 83.876 43.643 144.108C88.93769 856.095 159.30769 883.63 253.89369 885.504c2.785 0.051 5.55 0.072 8.304 0.072 175.78 0 246.938-109.978 273.808-176.139h125.521c3.093 0 6.175-0.307 9.196-0.921l2.212-0.45c47.145-9.422 97.003-53.157 94.945-126.885-2.1-75.386-53.32-114.841-102.83-114.841H274.96769l0.031-9.759 0.01-1.126c0.215-50.023 0.492-112.139-41.482-154.327-22.108-22.262-51.865-34.048-86.026-34.1z m114.688 525.466c-2.17 0-4.352-0.02-6.502-0.061-66.56-1.321-113.613-17.726-139.756-48.763-27.33-32.41-22.661-71.025-22.446-72.653 0.051-0.317 0.082-0.645 0.123-0.973l29.91-274.565a38.912 38.912 0 0 0 0.236-3.267c0.205-5.355 2.304-32.081 23.645-32.081 13.537 0.01 18.309 4.812 20.1 6.615 14.746 14.817 14.572 55.51 14.419 88.197l-0.01 1.116c-0.042 8.479-0.083 16.507 0.122 23.972 1.28 54.2 39.086 79.175 73.667 79.4h409.364c5.468 0.42 9.37 9.985 9.77 24.341 0.665 24.064-13.6 30.915-18.566 32.563h-153.59a46.572 46.572 0 0 0-44.984 34.58c-14.06 52.87-58.163 141.58-195.502 141.58z"  horiz-adv-x="1024" />

    
    <glyph glyph-name="yaoyiyao1" unicode="&#58632;" d="M144.65585518 283.94579023999995c-11.27273559 42.51781798-22.54547121 78.2965005-30.14231477 114.9328912-16.05139525 76.94867343 2.32806498 147.77086011 58.81427272 200.58117582 33.08302841 31.00002291 42.51781798 57.34391588 26.95654164 98.02378781-22.66800093 59.1818619 6.37154623 86.75105222 62.12257551 100.47438251 123.38744293 30.26484449 246.03970741 62.85775393 369.18209086 94.10283628 79.76685734 20.21740624 104.76292323 5.88142728 127.55345387-75.23325711 12.9881519-46.56129922 15.56127632-97.65619859 86.75105223-94.22536602 15.31621683 0.73517842 41.29252061-26.34389299 46.80635869-45.09094244 33.69567705-114.81036147 64.81822969-230.60096081 92.0198308-347.24926829 5.02371913-21.32017383-4.16601098-58.93680243-20.0948765-69.84194881-46.07118028-31.49014185-38.10674752-67.02376491-27.44666059-110.76688023 29.40713636-119.34396166 27.56919031-118.11866432-94.96054445-148.0159196-104.88545294-25.60871455-209.52584645-53.05537515-312.94094259-84.05539807-54.40320222-16.29645473-101.20956091-21.44270358-134.78270822 40.31228276-48.27671551-27.93677953-92.26489026-53.54549409-147.40327092-85.52575489-48.76683444 63.59293235-98.02378782 127.55345389-146.79062228 191.75903492-5.6363678 7.47431382-8.57708144 16.78657366-13.7233303 24.75100641-70.33206776 109.05146393-70.4545975 108.9289342 42.39528825 185.38748867 5.6363678 4.16601098 11.88538426 7.47431382 15.68380605 9.67984908zM254.68755701 726.8907814300001c19.48222781-40.189753 25.36365509-75.96843557 46.19370998-90.9170632 60.28462951-43.37552612 129.63645937-74.13048953 189.06338075-118.48625352 28.18183899-20.95258466 58.69174295-62.24510528 57.34391586-92.87753895-1.47035682-34.30832574-31.61267158-74.9881977-61.01980789-98.26884729-26.4664227-20.95258466-68.73918119-22.05535226-102.06726906-31.36761209 23.15811987-97.65619859 44.47829371-195.67998643 71.55736509-292.23341744 4.2885407-15.19368711 37.86168803-35.65615281 53.05537518-32.22532021 91.03959295 20.70752519 180.73135877 47.2964776 270.66818406 72.66013271 108.56134501 30.50990394 118.4862535 54.52573198 64.69569996 162.59695802-78.05144105-22.91306041-107.33604765 25.24112538-128.2886323 90.91706319-19.84981704 62.12257551-45.33600187 122.5297348-69.59688934 183.3044832-60.77474845 152.42699005-54.52573198 179.01594249 63.59293236 235.01203129-8.57708144 40.31228274-17.64428179 82.46251149-27.20160113 127.18586468C539.8142498 803.9619846 405.27660103 767.57065336 254.68755701 726.8907814300001z m21.1976441-145.81038437c-103.41509613-29.16207686-100.71944199-101.45462038-93.49018762-174.11475309 2.94071362-30.26484449 6.73913541-62.85775393 20.33993597-89.07911717 30.019785-57.95656454-1.47035682-85.89334407-45.0909424-111.01193973-15.80633582-9.06720039-32.34784998-16.78657366-59.42692136-30.63243368 57.09885641-76.09096527 110.27676129-147.15821144 162.71948776-217.24521973 115.91312909 64.20558101 115.91312909 64.20558101 90.67200373 183.79460211-3.92095154 18.37946022-7.1067246 37.0039799-12.00791401 55.13838067-17.64428179 66.04352702-35.77868257 131.84199461-54.52573195 200.21358662 55.75102932-9.43478957 101.69967985-22.17788197 147.89338983-22.79053068 19.60475759-0.24505947 39.45457459 24.75100643 59.1818619 38.22927726-12.25297346 14.45850869-22.30041171 31.98026078-37.24903937 42.76287743-60.40715922 43.86564505-122.40720501 85.6482846-179.01594248 124.73526999z m393.19791886 36.3913312c40.80240168-109.90917208 77.68385185-218.22545765 123.87756183-322.49826188 6.00395701-13.47827081 60.77474845-10.78261666 91.28465241-5.63636782 16.29645473 2.69565417 43.62058556 30.14231475 41.16999088 40.67987194-24.50594696 104.51786375-52.93284542 208.17801938-84.17792777 310.98046685-3.67589205 12.13044374-33.20555813 27.07907137-46.43876946 23.77076855-39.82216379-10.169968-77.68385185-28.5494282-125.71550789-47.29647764zM751.42310174 123.79942693999999c-53.79055357-14.33597896-107.21351791-30.50990394-161.73924989-41.53758013-12.86562216-2.57312442-29.16207686 11.88538426-43.9881748 18.6245197 7.96443276 11.39526534 13.60080055 28.5494282 24.38341722 33.08302836 38.35180699 16.05139525 77.68385185 32.71543918 118.24119408 39.08698542 21.68776305 3.43083258 46.56129922-13.96838976 70.08700828-22.05535225l-6.98419489-27.2016011z"  horiz-adv-x="1024" />

    
    <glyph glyph-name="qiabao2" unicode="&#58649;" d="M975.91985239 563.67933609h-47.56567468V775.70333095L84.42019482 645.7301248900001l-7.13485118 47.0900179L975.91985239 831.11734194zM1007.90776859-46.70718414999999L18.54173543 87.42801841000005V696.50648259l989.36603316-134.01628839v-609.19737835zM66.10741009 129.04798375999997l894.23468383-121.29247041V520.87022888L66.10741009 642.04378509v-512.99580133z"  horiz-adv-x="1024" />

    
    <glyph glyph-name="xiaochengxu2" unicode="&#58923;" d="M635.4432 640c82.4832 0 149.6064-62.0032 149.6064-138.8032 0-23.9104-6.8096-47.2064-19.3024-68.2496a148.48 148.48 0 0 0-85.3504-64.3072 83.2512 83.2512 0 0 0-23.9104-3.9936 28.16 28.16 0 0 0-28.416 28.4672 28.16 28.16 0 0 0 28.416 28.416c1.1264 0 3.4304 0 6.2464 1.1776 24.4736 6.8096 43.8272 20.992 54.6304 39.7824 7.424 11.9808 10.8032 25.088 10.8032 38.7072 0 44.9536-41.472 81.92-92.16 81.92-17.6128 0-34.7136-4.5568-50.0736-13.1072-26.7264-15.36-42.6496-40.96-42.6496-68.8128v-238.3872c0-48.3328-26.7264-92.672-71.1168-117.76-23.8592-13.6192-50.6368-20.48-77.9264-20.48-82.4832 0-149.6064 62.0032-149.6064 138.8032 0 23.9104 6.8096 47.2576 19.3536 68.3008a148.48 148.48 0 0 0 85.2992 64.256c10.24 2.8672 17.1008 3.9936 23.9104 3.9936a28.16 28.16 0 0 0 28.416-28.416 28.16 28.16 0 0 0-28.416-28.4672 15.872 15.872 0 0 1-6.2464-1.1264c-24.4736-7.424-43.8272-21.6064-54.6304-39.8336a72.3456 72.3456 0 0 1-10.8032-38.7072c0-44.9024 41.5232-81.92 92.7232-81.92 17.6128 0 34.7136 4.608 50.0736 13.1072 26.7264 15.36 42.6496 40.96 42.6496 68.8128V501.248c0 48.3328 26.7264 92.7232 71.1168 117.76A147.8656 147.8656 0 0 0 635.4432 640z m-578.56-256A454.9632 454.9632 0 0 1 512-71.1168 454.9632 454.9632 0 0 1 967.1168 384 454.9632 454.9632 0 0 1 512 839.1168 454.9632 454.9632 0 0 1 56.8832 384zM0 384C0 666.7264 229.2736 896 512 896s512-229.2736 512-512-229.2736-512-512-512S0 101.2736 0 384z"  horiz-adv-x="1024" />

    
    <glyph glyph-name="yuyin" unicode="&#58911;" d="M589.824 673.911467c-0.085333 0.068267-0.1024 0.170667-0.221867 0.221866l-44.202666-45.602133c0.1024-0.085333 0.136533-0.1536 0.273066-0.238933 122.146133-125.917867 122.146133-330.154667 0-456.106667l44.151467-45.602133c146.551467 151.108267 146.551467 396.219733 0 547.328z m-88.456533-91.221334a0.7168 0.7168 0 0 1-0.221867 0.221867l-44.202667-45.602133c0-0.085333 0.119467-0.1536 0.221867-0.256 73.250133-75.52 73.250133-198.075733 0-273.646934l44.168533-45.6192c97.826133 100.693333 97.826133 264.1408 0.034134 364.9024z m-88.644267-90.999466L324.266667 400.4864l88.6784-91.477333c48.861867 50.432 48.861867 132.096 0 182.442666-0.068267 0.1024-0.170667 0.170667-0.221867 0.238934zM512 896c282.7776 0 512-229.2224 512-512 0-282.7776-229.2224-512-512-512C229.2224-128 0 101.2224 0 384 0 666.7776 229.2224 896 512 896z m0-68.266667C266.922667 827.733333 68.266667 629.077333 68.266667 384s198.656-443.733333 443.733333-443.733333 443.733333 198.656 443.733333 443.733333S757.077333 827.733333 512 827.733333z"  horiz-adv-x="1024" />

    
    <glyph glyph-name="faxian" unicode="&#58912;" d="M512-115.2C236.8-115.2 12.8 108.8 12.8 384S236.8 883.2 512 883.2 1011.2 659.2 1011.2 384 787.2-115.2 512-115.2z m0 921.6C279.04 806.4 89.6 616.96 89.6 384S279.04-38.4 512-38.4 934.4 151.04 934.4 384 744.96 806.4 512 806.4zM205.056 153.856l244.48 355.072 358.656 92.16-206.592-307.456-396.544-139.776zM496.64 441.6l-94.208-136.96 150.016 52.736 79.872 119.04-135.68-34.816z"  horiz-adv-x="1024" />

    
    <glyph glyph-name="hezi" unicode="&#58990;" d="M971.008 715.008L534.016 536.992 96 715.008 532.992 884zM60 640.992l436-182.016v-492.992q-52 23.008-108 48-48 20.992-108.512 47.008t-121.504 52q-22.016 10.016-40 26.496t-31.008 36-20 41.504T59.968 260V640.992z m938.016 0v-379.008q0-26.016-10.016-50.496t-25.504-46.016T928 127.456t-36.992-25.504Q838.016 79.936 780 55.936t-107.008-44q-56.992-24-112-46.016V458.912z"  horiz-adv-x="1024" />

    
    <glyph glyph-name="faxian1" unicode="&#58633;" d="M512-1.6201171899999736C299.41455078-1.6201171899999736 126.37988281 171.41455078 126.37988281 384S299.41455078 769.62011719 512 769.62011719 897.62011719 596.58544922 897.62011719 384 724.58544922-1.6201171899999736 512-1.6201171899999736z m0 711.9140625C332.04394531 710.29394531 185.70605469 563.95605469 185.70605469 384S332.04394531 57.706054689999974 512 57.706054689999974 838.29394531 204.04394531000003 838.29394531 384 691.95605469 710.29394531 512 710.29394531zM274.89306641 206.21923828l188.85498047 274.28466797 277.05322265 71.19140625-159.58740234-237.50244141-306.32080078-107.97363281zM500.13476562 428.49462891l-72.77343749-105.79833985 115.88378906 40.73730469 61.69921875 91.95556641-104.80957031-26.89453125z"  horiz-adv-x="1024" />

    


  </font>
</defs>
</svg>
